<svg width="751" height="786" viewBox="0 0 751 786" fill="none" xmlns="http://www.w3.org/2000/svg">
<g clip-path="url(#clip0_583_2391)">
<mask id="mask0_583_2391" style="mask-type:alpha" maskUnits="userSpaceOnUse" x="-167" y="3" width="946" height="621">
<path d="M-49 335C5.5 268 154.7 157.4 315.5 251C476.3 344.6 637.833 274.333 698.5 227.5" stroke="black" stroke-width="4"/>
<path d="M-49 321.046C5.5 254.046 154.7 143.446 315.5 237.046C476.3 330.646 637.833 260.379 698.5 213.546" stroke="black" stroke-width="4"/>
<path d="M-62 390.999C-7.5 323.999 141.7 213.399 302.5 306.999C463.3 400.599 624.833 330.332 685.5 283.499" stroke="black" stroke-width="4"/>
<path d="M-60 349.046C-5.5 282.046 143.7 171.446 304.5 265.046C465.3 358.646 626.833 288.379 687.5 241.546" stroke="black" stroke-width="4"/>
<path d="M-73 405.046C-18.5 338.046 130.7 227.446 291.5 321.046C452.3 414.646 613.833 344.379 674.5 297.546" stroke="black" stroke-width="4"/>
<path d="M-62 412.046C-7.5 345.046 141.7 234.446 302.5 328.046C463.3 421.646 624.833 351.379 685.5 304.546" stroke="black" stroke-width="4"/>
<path d="M-50 419.046C4.5 352.046 153.7 241.446 314.5 335.046C475.3 428.646 636.833 358.379 697.5 311.546" stroke="black" stroke-width="4"/>
<path d="M-36 428.046C18.5 361.046 167.7 250.446 328.5 344.046C489.3 437.646 650.833 367.379 711.5 320.546" stroke="black" stroke-width="4"/>
<path d="M-17 439.046C37.5 372.046 186.7 261.446 347.5 355.046C508.3 448.646 669.833 378.379 730.5 331.546" stroke="black" stroke-width="4"/>
<path d="M-2 449.046C52.5 382.046 201.7 271.446 362.5 365.046C523.3 458.646 684.833 388.379 745.5 341.546" stroke="black" stroke-width="4"/>
<path d="M13 460.046C67.5 393.046 216.7 282.446 377.5 376.046C538.3 469.646 699.833 399.379 760.5 352.546" stroke="black" stroke-width="4"/>
<path d="M13 468.046C67.5 401.046 216.7 290.446 377.5 384.046C538.3 477.646 699.833 407.379 760.5 360.546" stroke="black" stroke-width="4"/>
<path d="M13 477.046C67.5 410.046 216.7 299.446 377.5 393.046C538.3 486.646 699.833 416.379 760.5 369.546" stroke="black" stroke-width="4"/>
<path d="M9 483.046C63.5 416.046 212.7 305.446 373.5 399.046C534.3 492.646 695.833 422.379 756.5 375.546" stroke="black" stroke-width="4"/>
<path d="M4 488.046C58.5 421.046 207.7 310.446 368.5 404.046C529.3 497.646 690.833 427.379 751.5 380.546" stroke="black" stroke-width="4"/>
<path d="M-2 499.046C52.5 432.046 201.7 321.446 362.5 415.046C523.3 508.646 684.833 438.379 745.5 391.546" stroke="black" stroke-width="4"/>
<path d="M-11 509.046C43.5 442.046 192.7 331.446 353.5 425.046C514.3 518.646 675.833 448.379 736.5 401.546" stroke="black" stroke-width="4"/>
<path d="M-17 521.046C37.5 454.046 186.7 343.446 347.5 437.046C508.3 530.646 669.833 460.379 730.5 413.546" stroke="black" stroke-width="4"/>
<path d="M-26 532.046C28.5 465.046 177.7 354.446 338.5 448.046C499.3 541.646 660.833 471.379 721.5 424.546" stroke="black" stroke-width="4"/>
<path d="M-31 544.046C23.5 477.046 172.7 366.446 333.5 460.046C494.3 553.646 655.833 483.379 716.5 436.546" stroke="black" stroke-width="4"/>
<path d="M-31 559.046C23.5 492.046 172.7 381.446 333.5 475.046C494.3 568.646 655.833 498.379 716.5 451.546" stroke="black" stroke-width="4"/>
<path d="M-26 572.046C28.5 505.046 177.7 394.446 338.5 488.046C499.3 581.646 660.833 511.379 721.5 464.546" stroke="black" stroke-width="4"/>
<path d="M-11 588.046C43.5 521.046 192.7 410.446 353.5 504.046C514.3 597.646 675.833 527.379 736.5 480.546" stroke="black" stroke-width="4"/>
<path d="M-2 600.046C52.5 533.046 201.7 422.446 362.5 516.046C523.3 609.646 684.833 539.379 745.5 492.546" stroke="black" stroke-width="4"/>
<path d="M13 611.046C67.5 544.046 216.7 433.446 377.5 527.046C538.3 620.646 699.833 550.379 760.5 503.546" stroke="black" stroke-width="4"/>
<path d="M30 622.046C84.5 555.046 233.7 444.446 394.5 538.046C555.3 631.646 716.833 561.379 777.5 514.546" stroke="black" stroke-width="4"/>
<path d="M-49 308.046C5.5 241.046 154.7 130.446 315.5 224.046C476.3 317.646 637.833 247.379 698.5 200.546" stroke="black" stroke-width="4"/>
<path d="M-62 364.046C-7.5 297.046 141.7 186.446 302.5 280.046C463.3 373.646 624.833 303.379 685.5 256.546" stroke="black" stroke-width="4"/>
<path d="M-67 376.046C-12.5 309.046 136.7 198.446 297.5 292.046C458.3 385.646 619.833 315.379 680.5 268.546" stroke="black" stroke-width="4"/>
<path d="M-49 289.046C5.5 222.046 154.7 111.446 315.5 205.046C476.3 298.646 637.833 228.379 698.5 181.546" stroke="black" stroke-width="4"/>
<path d="M-49 275.046C5.5 208.046 154.7 97.4456 315.5 191.046C476.3 284.646 637.833 214.379 698.5 167.546" stroke="black" stroke-width="4"/>
<path d="M-50 265.046C4.5 198.046 153.7 87.4456 314.5 181.046C475.3 274.646 636.833 204.379 697.5 157.546" stroke="black" stroke-width="4"/>
<path d="M-60 248.046C-5.5 181.046 143.7 70.4456 304.5 164.046C465.3 257.646 626.833 187.379 687.5 140.546" stroke="black" stroke-width="4"/>
<path d="M-73 229.046C-18.5 162.046 130.7 51.4456 291.5 145.046C452.3 238.646 613.833 168.379 674.5 121.546" stroke="black" stroke-width="4"/>
<path d="M-83 215.046C-28.5 148.046 120.7 37.4456 281.5 131.046C442.3 224.646 603.833 154.379 664.5 107.546" stroke="black" stroke-width="4"/>
<path d="M-91 205.046C-36.5 138.046 112.7 27.4456 273.5 121.046C434.3 214.646 595.833 144.379 656.5 97.5459" stroke="black" stroke-width="4"/>
<path d="M-96 196.046C-41.5 129.046 107.7 18.4456 268.5 112.046C429.3 205.646 590.833 135.379 651.5 88.5459" stroke="black" stroke-width="4"/>
<path d="M-101 188.046C-46.5 121.046 102.7 10.4456 263.5 104.046C424.3 197.646 585.833 127.379 646.5 80.5459" stroke="black" stroke-width="4"/>
<path d="M-109 180.046C-54.5 113.046 94.7 2.44559 255.5 96.0456C416.3 189.646 577.833 119.379 638.5 72.5459" stroke="black" stroke-width="4"/>
<path d="M-120 169.046C-65.5 102.046 83.7 -8.55441 244.5 85.0456C405.3 178.646 566.833 108.379 627.5 61.5459" stroke="black" stroke-width="4"/>
<path d="M-136 155.046C-81.5 88.0456 67.7 -22.5544 228.5 71.0456C389.3 164.646 550.833 94.3791 611.5 47.5459" stroke="black" stroke-width="4"/>
<path d="M-143 145.046C-88.5 78.0456 60.7 -32.5544 221.5 61.0456C382.3 154.646 543.833 84.3791 604.5 37.5459" stroke="black" stroke-width="4"/>
<path d="M-153 135.046C-98.5 68.0456 50.7 -42.5544 211.5 51.0456C372.3 144.646 533.833 74.3791 594.5 27.5459" stroke="black" stroke-width="4"/>
<path d="M-165 125.046C-110.5 58.0456 38.7 -52.5544 199.5 41.0456C360.3 134.646 521.833 64.3791 582.5 17.5459" stroke="black" stroke-width="4"/>
</mask>
<g mask="url(#mask0_583_2391)">
<path fill-rule="evenodd" clip-rule="evenodd" d="M577 487.75L375.5 138.742L174 487.75H577ZM493.748 439.964L376.159 236.293L258.57 439.964H493.748Z" fill="url(#paint0_linear_583_2391)"/>
</g>
<path fill-rule="evenodd" clip-rule="evenodd" d="M460.209 421.917H290.668L375.438 275.09L372.5 270L282 426.751H463L460.209 421.917Z" fill="#8E002C"/>
</g>
<path d="M70.424 629V555.784C70.424 552.285 71.2773 549.128 72.984 546.312C74.6907 543.411 76.9947 541.107 79.896 539.4C82.7973 537.693 85.9547 536.84 89.368 536.84H143.512C147.011 536.84 150.168 537.693 152.984 539.4C155.885 541.107 158.189 543.411 159.896 546.312C161.688 549.128 162.584 552.285 162.584 555.784V629H142.488V599.304H90.264V629H70.424ZM90.264 579.336H142.488V556.808H90.264V579.336ZM195.344 629C191.931 629 188.816 628.147 186 626.44C183.184 624.733 180.923 622.472 179.216 619.656C177.595 616.84 176.784 613.768 176.784 610.44V554.76H196.368V609.416H232.464V554.76H252.048V610.44C252.048 613.768 251.195 616.84 249.488 619.656C247.867 622.472 245.648 624.733 242.832 626.44C240.016 628.147 236.901 629 233.488 629H195.344ZM280.963 629C277.635 629 274.563 628.147 271.747 626.44C268.931 624.733 266.67 622.472 264.963 619.656C263.256 616.84 262.403 613.768 262.403 610.44V573.32C262.403 569.992 263.256 566.92 264.963 564.104C266.67 561.288 268.931 559.027 271.747 557.32C274.563 555.613 277.635 554.76 280.963 554.76H337.539V574.344H281.987V609.416H337.667V629H280.963ZM366.847 629C363.434 629 360.319 628.147 357.503 626.44C354.687 624.733 352.426 622.472 350.719 619.656C349.012 616.84 348.159 613.768 348.159 610.44V532.744H367.743V554.76H395.263V574.344H367.743V609.416H395.263V629H366.847ZM405.781 629V554.76H425.365V629H405.781ZM405.781 550.152V530.44H425.365V550.152H405.781ZM453.463 629C450.135 629 447.063 628.147 444.247 626.44C441.431 624.733 439.17 622.472 437.463 619.656C435.756 616.84 434.903 613.768 434.903 610.44V573.32C434.903 569.992 435.756 566.92 437.463 564.104C439.17 561.288 441.431 559.027 444.247 557.32C447.063 555.613 450.135 554.76 453.463 554.76H491.607C495.02 554.76 498.135 555.613 500.951 557.32C503.767 559.027 505.986 561.288 507.607 564.104C509.314 566.92 510.167 569.992 510.167 573.32V610.44C510.167 613.768 509.314 616.84 507.607 619.656C505.986 622.472 503.767 624.733 500.951 626.44C498.135 628.147 495.02 629 491.607 629H453.463ZM454.487 609.416H490.583V574.344H454.487V609.416ZM520.287 629V554.76H576.991C580.404 554.76 583.519 555.613 586.335 557.32C589.151 559.027 591.37 561.288 592.991 564.104C594.698 566.92 595.551 569.992 595.551 573.32V629H575.967V574.344H539.871V629H520.287ZM624.704 629C621.376 629 618.304 628.147 615.488 626.44C612.672 624.733 610.411 622.472 608.704 619.656C606.997 616.84 606.144 613.768 606.144 610.44V606.728H625.728V609.416H661.824V601.736H624.704C621.376 601.736 618.304 600.883 615.488 599.176C612.672 597.469 610.411 595.208 608.704 592.392C606.997 589.576 606.144 586.504 606.144 583.176V573.32C606.144 569.992 606.997 566.92 608.704 564.104C610.411 561.288 612.672 559.027 615.488 557.32C618.304 555.613 621.376 554.76 624.704 554.76H662.848C666.261 554.76 669.376 555.613 672.192 557.32C675.008 559.027 677.269 561.288 678.976 564.104C680.683 566.92 681.536 569.992 681.536 573.32V577.032H661.824V574.344H625.728V582.024H662.848C666.261 582.024 669.376 582.877 672.192 584.584C675.008 586.291 677.269 588.552 678.976 591.368C680.683 594.184 681.536 597.256 681.536 600.584V610.44C681.536 613.768 680.683 616.84 678.976 619.656C677.269 622.472 675.008 624.733 672.192 626.44C669.376 628.147 666.261 629 662.848 629H624.704Z" fill="#8E002C"/>
<defs>
<linearGradient id="paint0_linear_583_2391" x1="375.5" y1="138.742" x2="375.5" y2="487.75" gradientUnits="userSpaceOnUse">
<stop stop-color="#D9D9D9"/>
<stop offset="0.0001" stop-color="#FFE000"/>
<stop offset="1" stop-color="#C10033"/>
</linearGradient>
<clipPath id="clip0_583_2391">
<rect width="529" height="484" fill="white" transform="translate(111 72)"/>
</clipPath>
</defs>
</svg>
