<svg width="1727" height="672" fill="none" xmlns="http://www.w3.org/2000/svg">
    <g clip-path="url(#a)">
        <mask id="b" style="mask-type:alpha" maskUnits="userSpaceOnUse" x="-215" y="25" width="946" height="621">
            <path d="M-97 357c54.5-67 203.7-177.6 364.5-84s322.333 23.333 383-23.5" stroke="#000" stroke-width="4"/>
            <path d="M-97 343.046c54.5-67 203.7-177.6 364.5-84s322.333 23.333 383-23.5" stroke="#000" stroke-width="4"/>
            <path d="M-110 413c54.5-67 203.7-177.6 364.5-84s322.333 23.333 383-23.5" stroke="#000" stroke-width="4"/>
            <path d="M-108 371.046c54.5-67 203.7-177.6 364.5-84s322.333 23.333 383-23.5" stroke="#000"
                  stroke-width="4"/>
            <path d="M-121 427.046c54.5-67 203.7-177.6 364.5-84s322.333 23.333 383-23.5" stroke="#000"
                  stroke-width="4"/>
            <path d="M-110 434.046c54.5-67 203.7-177.6 364.5-84s322.333 23.333 383-23.5" stroke="#000"
                  stroke-width="4"/>
            <path d="M-98 441.046c54.5-67 203.7-177.6 364.5-84s322.333 23.333 383-23.5" stroke="#000" stroke-width="4"/>
            <path d="M-84 450.046c54.5-67 203.7-177.6 364.5-84s322.333 23.333 383-23.5" stroke="#000" stroke-width="4"/>
            <path d="M-65 461.046c54.5-67 203.7-177.6 364.5-84s322.333 23.333 383-23.5" stroke="#000" stroke-width="4"/>
            <path d="M-50 471.046c54.5-67 203.7-177.6 364.5-84s322.333 23.333 383-23.5" stroke="#000" stroke-width="4"/>
            <path d="M-35 482.046c54.5-67 203.7-177.6 364.5-84s322.333 23.333 383-23.5" stroke="#000" stroke-width="4"/>
            <path d="M-35 490.046c54.5-67 203.7-177.6 364.5-84s322.333 23.333 383-23.5" stroke="#000" stroke-width="4"/>
            <path d="M-35 499.046c54.5-67 203.7-177.6 364.5-84s322.333 23.333 383-23.5" stroke="#000" stroke-width="4"/>
            <path d="M-39 505.046c54.5-67 203.7-177.6 364.5-84s322.333 23.333 383-23.5" stroke="#000" stroke-width="4"/>
            <path d="M-44 510.046c54.5-67 203.7-177.6 364.5-84s322.333 23.333 383-23.5" stroke="#000" stroke-width="4"/>
            <path d="M-50 521.046c54.5-67 203.7-177.6 364.5-84s322.333 23.333 383-23.5" stroke="#000" stroke-width="4"/>
            <path d="M-59 531.046c54.5-67 203.7-177.6 364.5-84s322.333 23.333 383-23.5" stroke="#000" stroke-width="4"/>
            <path d="M-65 543.046c54.5-67 203.7-177.6 364.5-84s322.333 23.333 383-23.5" stroke="#000" stroke-width="4"/>
            <path d="M-74 554.046c54.5-67 203.7-177.6 364.5-84s322.333 23.333 383-23.5" stroke="#000" stroke-width="4"/>
            <path d="M-79 566.046c54.5-67 203.7-177.6 364.5-84s322.333 23.333 383-23.5" stroke="#000" stroke-width="4"/>
            <path d="M-79 581.046c54.5-67 203.7-177.6 364.5-84s322.333 23.333 383-23.5" stroke="#000" stroke-width="4"/>
            <path d="M-74 594.046c54.5-67 203.7-177.6 364.5-84s322.333 23.333 383-23.5" stroke="#000" stroke-width="4"/>
            <path d="M-59 610.046c54.5-67 203.7-177.6 364.5-84s322.333 23.333 383-23.5" stroke="#000" stroke-width="4"/>
            <path d="M-50 622.046c54.5-67 203.7-177.6 364.5-84s322.333 23.333 383-23.5" stroke="#000" stroke-width="4"/>
            <path d="M-35 633.046c54.5-67 203.7-177.6 364.5-84s322.333 23.333 383-23.5" stroke="#000" stroke-width="4"/>
            <path d="M-18 644.046c54.5-67 203.7-177.6 364.5-84s322.333 23.333 383-23.5M-97 330.046c54.5-67 203.7-177.6 364.5-84s322.333 23.333 383-23.5"
                  stroke="#000" stroke-width="4"/>
            <path d="M-110 386.046c54.5-67 203.7-177.6 364.5-84s322.333 23.333 383-23.5" stroke="#000"
                  stroke-width="4"/>
            <path d="M-115 398.046c54.5-67 203.7-177.6 364.5-84s322.333 23.333 383-23.5" stroke="#000"
                  stroke-width="4"/>
            <path d="M-97 311.046c54.5-67 203.7-177.6 364.5-84s322.333 23.333 383-23.5" stroke="#000" stroke-width="4"/>
            <path d="M-97 297.046c54.5-67 203.7-177.6 364.5-84s322.333 23.333 383-23.5" stroke="#000" stroke-width="4"/>
            <path d="M-98 287.046c54.5-67 203.7-177.6 364.5-84s322.333 23.333 383-23.5" stroke="#000" stroke-width="4"/>
            <path d="M-108 270.046c54.5-67 203.7-177.6 364.5-84s322.333 23.333 383-23.5" stroke="#000"
                  stroke-width="4"/>
            <path d="M-121 251.046c54.5-67 203.7-177.6 364.5-84s322.333 23.333 383-23.5" stroke="#000"
                  stroke-width="4"/>
            <path d="M-131 237.046c54.5-67 203.7-177.6 364.5-84s322.333 23.333 383-23.5" stroke="#000"
                  stroke-width="4"/>
            <path d="M-139 227.046c54.5-67 203.7-177.6 364.5-84s322.333 23.333 383-23.5" stroke="#000"
                  stroke-width="4"/>
            <path d="M-144 218.046c54.5-67 203.7-177.6 364.5-84s322.333 23.333 383-23.5" stroke="#000"
                  stroke-width="4"/>
            <path d="M-149 210.046c54.5-67 203.7-177.6 364.5-84s322.333 23.333 383-23.5" stroke="#000"
                  stroke-width="4"/>
            <path d="M-157 202.046c54.5-67 203.7-177.6 364.5-84s322.333 23.333 383-23.5" stroke="#000"
                  stroke-width="4"/>
            <path d="M-168 191.046c54.5-67 203.7-177.6 364.5-84s322.333 23.333 383-23.5" stroke="#000"
                  stroke-width="4"/>
            <path d="M-184 177.046c54.5-67 203.7-177.6 364.5-84s322.333 23.333 383-23.5" stroke="#000"
                  stroke-width="4"/>
            <path d="M-191 167.046c54.5-67 203.7-177.6 364.5-84s322.333 23.333 383-23.5" stroke="#000"
                  stroke-width="4"/>
            <path d="M-201 157.046c54.5-67 203.7-177.6 364.5-84s322.333 23.333 383-23.5" stroke="#000"
                  stroke-width="4"/>
            <path d="M-213 147.046c54.5-67 203.7-177.6 364.5-84s322.333 23.333 383-23.5" stroke="#000"
                  stroke-width="4"/>
        </mask>
        <g mask="url(#b)">
            <path fill-rule="evenodd" clip-rule="evenodd"
                  d="M529 509.75 327.5 160.742 126 509.75h403Zm-83.252-47.786L328.159 258.293 210.57 461.964h235.178Z"
                  fill="url(#c)"/>
        </g>
        <path fill-rule="evenodd" clip-rule="evenodd"
              d="M412.209 443.917H242.668l84.77-146.827L324.5 292 234 448.751h181l-2.791-4.834Z" fill="#8E002C"/>
    </g>
    <path d="M615.6 433V318.6c0-5.467 1.333-10.4 4-14.8 2.667-4.533 6.267-8.133 10.8-10.8 4.533-2.667 9.467-4 14.8-4h84.6c5.467 0 10.4 1.333 14.8 4 4.533 2.667 8.133 6.267 10.8 10.8 2.8 4.4 4.2 9.333 4.2 14.8V433h-31.4v-46.4h-81.6V433h-31Zm31-77.6h81.6v-35.2h-81.6v35.2ZM810.788 433c-5.334 0-10.2-1.333-14.6-4s-7.934-6.2-10.6-10.6c-2.534-4.4-3.8-9.2-3.8-14.4v-87h30.6v85.4h56.4V317h30.6v87c0 5.2-1.334 10-4 14.4-2.534 4.4-6 7.933-10.4 10.6s-9.267 4-14.6 4h-59.6Zm133.779 0c-5.2 0-10-1.333-14.4-4s-7.933-6.2-10.6-10.6c-2.666-4.4-4-9.2-4-14.4v-58c0-5.2 1.334-10 4-14.4 2.667-4.4 6.2-7.933 10.6-10.6 4.4-2.667 9.2-4 14.4-4h88.403v30.6h-86.803v54.8h87.003V433h-88.603Zm134.193 0c-5.33 0-10.2-1.333-14.6-4s-7.93-6.2-10.6-10.6c-2.67-4.4-4-9.2-4-14.4V282.6h30.6V317h43v30.6h-43v54.8h43V433h-44.4Zm60.84 0V317h30.6v116h-30.6Zm0-123.2V279h30.6v30.8h-30.6Zm74.5 123.2c-5.2 0-10-1.333-14.4-4s-7.93-6.2-10.6-10.6c-2.67-4.4-4-9.2-4-14.4v-58c0-5.2 1.33-10 4-14.4s6.2-7.933 10.6-10.6c4.4-2.667 9.2-4 14.4-4h59.6c5.33 0 10.2 1.333 14.6 4s7.87 6.2 10.4 10.6c2.67 4.4 4 9.2 4 14.4v58c0 5.2-1.33 10-4 14.4-2.53 4.4-6 7.933-10.4 10.6s-9.27 4-14.6 4h-59.6Zm1.6-30.6h56.4v-54.8h-56.4v54.8Zm102.81 30.6V317h88.6c5.33 0 10.2 1.333 14.6 4s7.87 6.2 10.4 10.6c2.67 4.4 4 9.2 4 14.4v87h-30.6v-85.4h-56.4V433h-30.6Zm163.15 0c-5.2 0-10-1.333-14.4-4s-7.93-6.2-10.6-10.6c-2.66-4.4-4-9.2-4-14.4v-5.8h30.6v4.2h56.4v-12h-58c-5.2 0-10-1.333-14.4-4s-7.93-6.2-10.6-10.6c-2.66-4.4-4-9.2-4-14.4V346c0-5.2 1.34-10 4-14.4 2.67-4.4 6.2-7.933 10.6-10.6 4.4-2.667 9.2-4 14.4-4h59.6c5.34 0 10.2 1.333 14.6 4s7.94 6.2 10.6 10.6c2.67 4.4 4 9.2 4 14.4v5.8h-30.8v-4.2h-56.4v12h58c5.34 0 10.2 1.333 14.6 4s7.94 6.2 10.6 10.6c2.67 4.4 4 9.2 4 14.4V404c0 5.2-1.33 10-4 14.4-2.66 4.4-6.2 7.933-10.6 10.6-4.4 2.667-9.26 4-14.6 4h-59.6Z"
          fill="#8E002C"/>
    <defs>
        <linearGradient id="c" x1="327.5" y1="160.742" x2="327.5" y2="509.75" gradientUnits="userSpaceOnUse">
            <stop stop-color="#FFE000"/>
            <stop offset="1" stop-color="#8E002C"/>
        </linearGradient>
        <clipPath id="a">
            <path fill="#fff" transform="translate(63 94)" d="M0 0h529v484H0z"/>
        </clipPath>
    </defs>
</svg>