<svg width="1416" height="616" viewBox="0 0 1416 616" fill="none" xmlns="http://www.w3.org/2000/svg">
<g clip-path="url(#clip0_583_2385)">
<mask id="mask0_583_2385" style="mask-type:alpha" maskUnits="userSpaceOnUse" x="-157" y="28" width="946" height="621">
<path d="M-39 359.999C15.5 292.999 164.7 182.399 325.5 275.999C486.3 369.599 647.833 299.332 708.5 252.499" stroke="black" stroke-width="4"/>
<path d="M-39 346.046C15.5 279.046 164.7 168.446 325.5 262.046C486.3 355.646 647.833 285.379 708.5 238.546" stroke="black" stroke-width="4"/>
<path d="M-52 415.999C2.5 348.999 151.7 238.399 312.5 331.999C473.3 425.599 634.833 355.332 695.5 308.499" stroke="black" stroke-width="4"/>
<path d="M-50 374.046C4.5 307.046 153.7 196.446 314.5 290.046C475.3 383.646 636.833 313.379 697.5 266.546" stroke="black" stroke-width="4"/>
<path d="M-63 430.046C-8.5 363.046 140.7 252.446 301.5 346.046C462.3 439.646 623.833 369.379 684.5 322.546" stroke="black" stroke-width="4"/>
<path d="M-52 437.046C2.5 370.046 151.7 259.446 312.5 353.046C473.3 446.646 634.833 376.379 695.5 329.546" stroke="black" stroke-width="4"/>
<path d="M-40 444.046C14.5 377.046 163.7 266.446 324.5 360.046C485.3 453.646 646.833 383.379 707.5 336.546" stroke="black" stroke-width="4"/>
<path d="M-26 453.046C28.5 386.046 177.7 275.446 338.5 369.046C499.3 462.646 660.833 392.379 721.5 345.546" stroke="black" stroke-width="4"/>
<path d="M-7 464.046C47.5 397.046 196.7 286.446 357.5 380.046C518.3 473.646 679.833 403.379 740.5 356.546" stroke="black" stroke-width="4"/>
<path d="M8 474.046C62.5 407.046 211.7 296.446 372.5 390.046C533.3 483.646 694.833 413.379 755.5 366.546" stroke="black" stroke-width="4"/>
<path d="M23 485.046C77.5 418.046 226.7 307.446 387.5 401.046C548.3 494.646 709.833 424.379 770.5 377.546" stroke="black" stroke-width="4"/>
<path d="M23 493.046C77.5 426.046 226.7 315.446 387.5 409.046C548.3 502.646 709.833 432.379 770.5 385.546" stroke="black" stroke-width="4"/>
<path d="M23 502.046C77.5 435.046 226.7 324.446 387.5 418.046C548.3 511.646 709.833 441.379 770.5 394.546" stroke="black" stroke-width="4"/>
<path d="M19 508.046C73.5 441.046 222.7 330.446 383.5 424.046C544.3 517.646 705.833 447.379 766.5 400.546" stroke="black" stroke-width="4"/>
<path d="M14 513.046C68.5 446.046 217.7 335.446 378.5 429.046C539.3 522.646 700.833 452.379 761.5 405.546" stroke="black" stroke-width="4"/>
<path d="M8 524.046C62.5 457.046 211.7 346.446 372.5 440.046C533.3 533.646 694.833 463.379 755.5 416.546" stroke="black" stroke-width="4"/>
<path d="M-1 534.046C53.5 467.046 202.7 356.446 363.5 450.046C524.3 543.646 685.833 473.379 746.5 426.546" stroke="black" stroke-width="4"/>
<path d="M-7 546.046C47.5 479.046 196.7 368.446 357.5 462.046C518.3 555.646 679.833 485.379 740.5 438.546" stroke="black" stroke-width="4"/>
<path d="M-16 557.046C38.5 490.046 187.7 379.446 348.5 473.046C509.3 566.646 670.833 496.379 731.5 449.546" stroke="black" stroke-width="4"/>
<path d="M-21 569.046C33.5 502.046 182.7 391.446 343.5 485.046C504.3 578.646 665.833 508.379 726.5 461.546" stroke="black" stroke-width="4"/>
<path d="M-21 584.046C33.5 517.046 182.7 406.446 343.5 500.046C504.3 593.646 665.833 523.379 726.5 476.546" stroke="black" stroke-width="4"/>
<path d="M-16 597.046C38.5 530.046 187.7 419.446 348.5 513.046C509.3 606.646 670.833 536.379 731.5 489.546" stroke="black" stroke-width="4"/>
<path d="M-1 613.046C53.5 546.046 202.7 435.446 363.5 529.046C524.3 622.646 685.833 552.379 746.5 505.546" stroke="black" stroke-width="4"/>
<path d="M8 625.046C62.5 558.046 211.7 447.446 372.5 541.046C533.3 634.646 694.833 564.379 755.5 517.546" stroke="black" stroke-width="4"/>
<path d="M23 636.046C77.5 569.046 226.7 458.446 387.5 552.046C548.3 645.646 709.833 575.379 770.5 528.546" stroke="black" stroke-width="4"/>
<path d="M40 647.046C94.5 580.046 243.7 469.446 404.5 563.046C565.3 656.646 726.833 586.379 787.5 539.546" stroke="black" stroke-width="4"/>
<path d="M-39 333.046C15.5 266.046 164.7 155.446 325.5 249.046C486.3 342.646 647.833 272.379 708.5 225.546" stroke="black" stroke-width="4"/>
<path d="M-52 389.046C2.5 322.046 151.7 211.446 312.5 305.046C473.3 398.646 634.833 328.379 695.5 281.546" stroke="black" stroke-width="4"/>
<path d="M-57 401.046C-2.5 334.046 146.7 223.446 307.5 317.046C468.3 410.646 629.833 340.379 690.5 293.546" stroke="black" stroke-width="4"/>
<path d="M-39 314.046C15.5 247.046 164.7 136.446 325.5 230.046C486.3 323.646 647.833 253.379 708.5 206.546" stroke="black" stroke-width="4"/>
<path d="M-39 300.046C15.5 233.046 164.7 122.446 325.5 216.046C486.3 309.646 647.833 239.379 708.5 192.546" stroke="black" stroke-width="4"/>
<path d="M-40 290.046C14.5 223.046 163.7 112.446 324.5 206.046C485.3 299.646 646.833 229.379 707.5 182.546" stroke="black" stroke-width="4"/>
<path d="M-50 273.046C4.5 206.046 153.7 95.4456 314.5 189.046C475.3 282.646 636.833 212.379 697.5 165.546" stroke="black" stroke-width="4"/>
<path d="M-63 254.046C-8.5 187.046 140.7 76.4456 301.5 170.046C462.3 263.646 623.833 193.379 684.5 146.546" stroke="black" stroke-width="4"/>
<path d="M-73 240.046C-18.5 173.046 130.7 62.4456 291.5 156.046C452.3 249.646 613.833 179.379 674.5 132.546" stroke="black" stroke-width="4"/>
<path d="M-81 230.046C-26.5 163.046 122.7 52.4456 283.5 146.046C444.3 239.646 605.833 169.379 666.5 122.546" stroke="black" stroke-width="4"/>
<path d="M-86 221.046C-31.5 154.046 117.7 43.4456 278.5 137.046C439.3 230.646 600.833 160.379 661.5 113.546" stroke="black" stroke-width="4"/>
<path d="M-91 213.046C-36.5 146.046 112.7 35.4456 273.5 129.046C434.3 222.646 595.833 152.379 656.5 105.546" stroke="black" stroke-width="4"/>
<path d="M-99 205.046C-44.5 138.046 104.7 27.4456 265.5 121.046C426.3 214.646 587.833 144.379 648.5 97.5459" stroke="black" stroke-width="4"/>
<path d="M-110 194.046C-55.5 127.046 93.7 16.4456 254.5 110.046C415.3 203.646 576.833 133.379 637.5 86.5459" stroke="black" stroke-width="4"/>
<path d="M-126 180.046C-71.5 113.046 77.7 2.44559 238.5 96.0456C399.3 189.646 560.833 119.379 621.5 72.5459" stroke="black" stroke-width="4"/>
<path d="M-133 170.046C-78.5 103.046 70.7 -7.55441 231.5 86.0456C392.3 179.646 553.833 109.379 614.5 62.5459" stroke="black" stroke-width="4"/>
<path d="M-143 160.046C-88.5 93.0456 60.7 -17.5544 221.5 76.0456C382.3 169.646 543.833 99.3791 604.5 52.5459" stroke="black" stroke-width="4"/>
<path d="M-155 150.046C-100.5 83.0456 48.7 -27.5544 209.5 66.0456C370.3 159.646 531.833 89.3791 592.5 42.5459" stroke="black" stroke-width="4"/>
</mask>
<g mask="url(#mask0_583_2385)">
<path d="M493 312.5L324 97L155 312.5L324 528L493 312.5Z" fill="url(#paint0_linear_583_2385)"/>
</g>
</g>
<path d="M633.8 381C628.333 381 623.333 379.667 618.8 377C614.4 374.333 610.867 370.8 608.2 366.4C605.533 361.867 604.2 356.867 604.2 351.4V266.6C604.2 261.133 605.533 256.2 608.2 251.8C610.867 247.267 614.4 243.667 618.8 241C623.333 238.333 628.333 237 633.8 237H747.8V268.2H641.8C639.667 268.2 638 268.733 636.8 269.8C635.733 270.867 635.2 272.533 635.2 274.8V343.2C635.2 345.333 635.733 347 636.8 348.2C638 349.267 639.667 349.8 641.8 349.8H747.8V381H633.8ZM794.7 381C789.5 381 784.7 379.667 780.3 377C775.9 374.333 772.367 370.8 769.7 366.4C767.033 362 765.7 357.2 765.7 352V294C765.7 288.8 767.033 284 769.7 279.6C772.367 275.2 775.9 271.667 780.3 269C784.7 266.333 789.5 265 794.7 265H854.3C859.633 265 864.5 266.333 868.9 269C873.3 271.667 876.767 275.2 879.3 279.6C881.967 284 883.3 288.8 883.3 294V338.4H796.3V350.4H883.3V381H794.7ZM796.3 311.6H852.7V295.6H796.3V311.6ZM927.577 381C922.243 381 917.377 379.667 912.977 377C908.577 374.333 905.043 370.8 902.377 366.4C899.843 362 898.577 357.2 898.577 352V294C898.577 288.8 899.843 284 902.377 279.6C905.043 275.2 908.577 271.667 912.977 269C917.377 266.333 922.243 265 927.577 265H985.777V227H1016.38V381H927.577ZM929.377 350.4H985.777V295.6H929.377V350.4ZM1066.78 381C1061.44 381 1056.58 379.667 1052.18 377C1047.78 374.333 1044.24 370.8 1041.58 366.4C1039.04 362 1037.78 357.2 1037.78 352V307.6H1124.78V295.6H1037.78V265H1126.38C1131.71 265 1136.58 266.333 1140.98 269C1145.38 271.667 1148.84 275.2 1151.38 279.6C1154.04 284 1155.38 288.8 1155.38 294V381H1066.78ZM1068.38 350.4H1124.78V334.4H1068.38V350.4ZM1171.17 381V294C1171.17 288.8 1172.51 284 1175.17 279.6C1177.84 275.2 1181.37 271.667 1185.77 269C1190.17 266.333 1195.04 265 1200.37 265H1264.37V295.6H1201.77V381H1171.17Z" fill="#8E002C"/>
<path fill-rule="evenodd" clip-rule="evenodd" d="M448 227.504L515 312.939L448 398.374V390.723L509 312.939L448 235.155V227.504Z" fill="#8E002C"/>
<path fill-rule="evenodd" clip-rule="evenodd" d="M200 226.504L133 311.939L200 397.374V389.723L139 311.939L200 234.155V226.504Z" fill="#8E002C"/>
<defs>
<linearGradient id="paint0_linear_583_2385" x1="324" y1="97" x2="324" y2="528" gradientUnits="userSpaceOnUse">
<stop stop-color="#FFE000"/>
<stop offset="1" stop-color="#8E002C"/>
</linearGradient>
<clipPath id="clip0_583_2385">
<rect width="353" height="447" fill="white" transform="translate(146 85)"/>
</clipPath>
</defs>
</svg>
