<svg width="751" height="786" viewBox="0 0 751 786" fill="none" xmlns="http://www.w3.org/2000/svg">
<g clip-path="url(#clip0_583_2394)">
<mask id="mask0_583_2394" style="mask-type:alpha" maskUnits="userSpaceOnUse" x="-104" y="36" width="946" height="621">
<path d="M14 367.999C68.5 300.999 217.7 190.399 378.5 283.999C539.3 377.599 700.833 307.332 761.5 260.499" stroke="black" stroke-width="4"/>
<path d="M14 354.046C68.5 287.046 217.7 176.446 378.5 270.046C539.3 363.646 700.833 293.379 761.5 246.546" stroke="black" stroke-width="4"/>
<path d="M1 423.999C55.5 356.999 204.7 246.399 365.5 339.999C526.3 433.599 687.833 363.332 748.5 316.499" stroke="black" stroke-width="4"/>
<path d="M3 382.046C57.5 315.046 206.7 204.446 367.5 298.046C528.3 391.646 689.833 321.379 750.5 274.546" stroke="black" stroke-width="4"/>
<path d="M-10 438.046C44.5 371.046 193.7 260.446 354.5 354.046C515.3 447.646 676.833 377.379 737.5 330.546" stroke="black" stroke-width="4"/>
<path d="M1 445.046C55.5 378.046 204.7 267.446 365.5 361.046C526.3 454.646 687.833 384.379 748.5 337.546" stroke="black" stroke-width="4"/>
<path d="M13 452.046C67.5 385.046 216.7 274.446 377.5 368.046C538.3 461.646 699.833 391.379 760.5 344.546" stroke="black" stroke-width="4"/>
<path d="M27 461.046C81.5 394.046 230.7 283.446 391.5 377.046C552.3 470.646 713.833 400.379 774.5 353.546" stroke="black" stroke-width="4"/>
<path d="M46 472.046C100.5 405.046 249.7 294.446 410.5 388.046C571.3 481.646 732.833 411.379 793.5 364.546" stroke="black" stroke-width="4"/>
<path d="M61 482.046C115.5 415.046 264.7 304.446 425.5 398.046C586.3 491.646 747.833 421.379 808.5 374.546" stroke="black" stroke-width="4"/>
<path d="M76 493.046C130.5 426.046 279.7 315.446 440.5 409.046C601.3 502.646 762.833 432.379 823.5 385.546" stroke="black" stroke-width="4"/>
<path d="M76 501.046C130.5 434.046 279.7 323.446 440.5 417.046C601.3 510.646 762.833 440.379 823.5 393.546" stroke="black" stroke-width="4"/>
<path d="M76 510.046C130.5 443.046 279.7 332.446 440.5 426.046C601.3 519.646 762.833 449.379 823.5 402.546" stroke="black" stroke-width="4"/>
<path d="M72 516.046C126.5 449.046 275.7 338.446 436.5 432.046C597.3 525.646 758.833 455.379 819.5 408.546" stroke="black" stroke-width="4"/>
<path d="M67 521.046C121.5 454.046 270.7 343.446 431.5 437.046C592.3 530.646 753.833 460.379 814.5 413.546" stroke="black" stroke-width="4"/>
<path d="M61 532.046C115.5 465.046 264.7 354.446 425.5 448.046C586.3 541.646 747.833 471.379 808.5 424.546" stroke="black" stroke-width="4"/>
<path d="M52 542.046C106.5 475.046 255.7 364.446 416.5 458.046C577.3 551.646 738.833 481.379 799.5 434.546" stroke="black" stroke-width="4"/>
<path d="M46 554.046C100.5 487.046 249.7 376.446 410.5 470.046C571.3 563.646 732.833 493.379 793.5 446.546" stroke="black" stroke-width="4"/>
<path d="M37 565.046C91.5 498.046 240.7 387.446 401.5 481.046C562.3 574.646 723.833 504.379 784.5 457.546" stroke="black" stroke-width="4"/>
<path d="M32 577.046C86.5 510.046 235.7 399.446 396.5 493.046C557.3 586.646 718.833 516.379 779.5 469.546" stroke="black" stroke-width="4"/>
<path d="M32 592.046C86.5 525.046 235.7 414.446 396.5 508.046C557.3 601.646 718.833 531.379 779.5 484.546" stroke="black" stroke-width="4"/>
<path d="M37 605.046C91.5 538.046 240.7 427.446 401.5 521.046C562.3 614.646 723.833 544.379 784.5 497.546" stroke="black" stroke-width="4"/>
<path d="M52 621.046C106.5 554.046 255.7 443.446 416.5 537.046C577.3 630.646 738.833 560.379 799.5 513.546" stroke="black" stroke-width="4"/>
<path d="M61 633.046C115.5 566.046 264.7 455.446 425.5 549.046C586.3 642.646 747.833 572.379 808.5 525.546" stroke="black" stroke-width="4"/>
<path d="M76 644.046C130.5 577.046 279.7 466.446 440.5 560.046C601.3 653.646 762.833 583.379 823.5 536.546" stroke="black" stroke-width="4"/>
<path d="M93 655.046C147.5 588.046 296.7 477.446 457.5 571.046C618.3 664.646 779.833 594.379 840.5 547.546" stroke="black" stroke-width="4"/>
<path d="M14 341.046C68.5 274.046 217.7 163.446 378.5 257.046C539.3 350.646 700.833 280.379 761.5 233.546" stroke="black" stroke-width="4"/>
<path d="M1 397.046C55.5 330.046 204.7 219.446 365.5 313.046C526.3 406.646 687.833 336.379 748.5 289.546" stroke="black" stroke-width="4"/>
<path d="M-4 409.046C50.5 342.046 199.7 231.446 360.5 325.046C521.3 418.646 682.833 348.379 743.5 301.546" stroke="black" stroke-width="4"/>
<path d="M14 322.046C68.5 255.046 217.7 144.446 378.5 238.046C539.3 331.646 700.833 261.379 761.5 214.546" stroke="black" stroke-width="4"/>
<path d="M14 308.046C68.5 241.046 217.7 130.446 378.5 224.046C539.3 317.646 700.833 247.379 761.5 200.546" stroke="black" stroke-width="4"/>
<path d="M13 298.046C67.5 231.046 216.7 120.446 377.5 214.046C538.3 307.646 699.833 237.379 760.5 190.546" stroke="black" stroke-width="4"/>
<path d="M3 281.046C57.5 214.046 206.7 103.446 367.5 197.046C528.3 290.646 689.833 220.379 750.5 173.546" stroke="black" stroke-width="4"/>
<path d="M-10 262.046C44.5 195.046 193.7 84.4456 354.5 178.046C515.3 271.646 676.833 201.379 737.5 154.546" stroke="black" stroke-width="4"/>
<path d="M-20 248.046C34.5 181.046 183.7 70.4456 344.5 164.046C505.3 257.646 666.833 187.379 727.5 140.546" stroke="black" stroke-width="4"/>
<path d="M-28 238.046C26.5 171.046 175.7 60.4456 336.5 154.046C497.3 247.646 658.833 177.379 719.5 130.546" stroke="black" stroke-width="4"/>
<path d="M-33 229.046C21.5 162.046 170.7 51.4456 331.5 145.046C492.3 238.646 653.833 168.379 714.5 121.546" stroke="black" stroke-width="4"/>
<path d="M-38 221.046C16.5 154.046 165.7 43.4456 326.5 137.046C487.3 230.646 648.833 160.379 709.5 113.546" stroke="black" stroke-width="4"/>
<path d="M-46 213.046C8.5 146.046 157.7 35.4456 318.5 129.046C479.3 222.646 640.833 152.379 701.5 105.546" stroke="black" stroke-width="4"/>
<path d="M-57 202.046C-2.5 135.046 146.7 24.4456 307.5 118.046C468.3 211.646 629.833 141.379 690.5 94.5459" stroke="black" stroke-width="4"/>
<path d="M-73 188.046C-18.5 121.046 130.7 10.4456 291.5 104.046C452.3 197.646 613.833 127.379 674.5 80.5459" stroke="black" stroke-width="4"/>
<path d="M-80 178.046C-25.5 111.046 123.7 0.445595 284.5 94.0456C445.3 187.646 606.833 117.379 667.5 70.5459" stroke="black" stroke-width="4"/>
<path d="M-90 168.046C-35.5 101.046 113.7 -9.55441 274.5 84.0456C435.3 177.646 596.833 107.379 657.5 60.5459" stroke="black" stroke-width="4"/>
<path d="M-102 158.046C-47.5 91.0456 101.7 -19.5544 262.5 74.0456C423.3 167.646 584.833 97.3791 645.5 50.5459" stroke="black" stroke-width="4"/>
</mask>
<g mask="url(#mask0_583_2394)">
<path d="M546 320.5L377 105L208 320.5L377 536L546 320.5Z" fill="url(#paint0_linear_583_2394)"/>
</g>
</g>
<path d="M186.112 662C182.613 662 179.413 661.147 176.512 659.44C173.696 657.733 171.435 655.472 169.728 652.656C168.021 649.755 167.168 646.555 167.168 643.056V588.784C167.168 585.285 168.021 582.128 169.728 579.312C171.435 576.411 173.696 574.107 176.512 572.4C179.413 570.693 182.613 569.84 186.112 569.84H259.072V589.808H191.232C189.867 589.808 188.8 590.149 188.032 590.832C187.349 591.515 187.008 592.581 187.008 594.032V637.808C187.008 639.173 187.349 640.24 188.032 641.008C188.8 641.691 189.867 642.032 191.232 642.032H259.072V662H186.112ZM289.088 662C285.76 662 282.688 661.147 279.872 659.44C277.056 657.733 274.795 655.472 273.088 652.656C271.381 649.84 270.528 646.768 270.528 643.44V606.32C270.528 602.992 271.381 599.92 273.088 597.104C274.795 594.288 277.056 592.027 279.872 590.32C282.688 588.613 285.76 587.76 289.088 587.76H327.232C330.645 587.76 333.76 588.613 336.576 590.32C339.392 592.027 341.611 594.288 343.232 597.104C344.939 599.92 345.792 602.992 345.792 606.32V634.736H290.112V642.416H345.792V662H289.088ZM290.112 617.584H326.208V607.344H290.112V617.584ZM374.129 662C370.716 662 367.601 661.147 364.785 659.44C361.969 657.733 359.708 655.472 358.001 652.656C356.38 649.84 355.569 646.768 355.569 643.44V606.32C355.569 602.992 356.38 599.92 358.001 597.104C359.708 594.288 361.969 592.027 364.785 590.32C367.601 588.613 370.716 587.76 374.129 587.76H411.377V563.44H430.961V662H374.129ZM375.281 642.416H411.377V607.344H375.281V642.416ZM463.216 662C459.803 662 456.688 661.147 453.872 659.44C451.056 657.733 448.795 655.472 447.088 652.656C445.467 649.84 444.656 646.768 444.656 643.44V615.024H500.336V607.344H444.656V587.76H501.36C504.773 587.76 507.888 588.613 510.704 590.32C513.52 592.027 515.739 594.288 517.36 597.104C519.067 599.92 519.92 602.992 519.92 606.32V662H463.216ZM464.24 642.416H500.336V632.176H464.24V642.416ZM530.031 662V606.32C530.031 602.992 530.884 599.92 532.591 597.104C534.298 594.288 536.559 592.027 539.375 590.32C542.191 588.613 545.306 587.76 548.719 587.76H589.679V607.344H549.615V662H530.031Z" fill="#8E002C"/>
<path fill-rule="evenodd" clip-rule="evenodd" d="M501 235.504L568 320.939L501 406.374V398.723L562 320.939L501 243.155V235.504Z" fill="#8E002C"/>
<path fill-rule="evenodd" clip-rule="evenodd" d="M253 234.504L186 319.939L253 405.374V397.723L192 319.939L253 242.155V234.504Z" fill="#8E002C"/>
<defs>
<linearGradient id="paint0_linear_583_2394" x1="377" y1="105" x2="377" y2="536" gradientUnits="userSpaceOnUse">
<stop stop-color="#FFE000"/>
<stop offset="1" stop-color="#8E002C"/>
</linearGradient>
<clipPath id="clip0_583_2394">
<rect width="353" height="447" fill="white" transform="translate(199 93)"/>
</clipPath>
</defs>
</svg>
