<svg width="751" height="779" viewBox="0 0 751 779" fill="none" xmlns="http://www.w3.org/2000/svg">
<g clip-path="url(#clip0_583_2384)">
<path fill-rule="evenodd" clip-rule="evenodd" d="M504.064 503.023C470.145 525.723 429.359 538.961 385.48 538.961C267.578 538.961 172 443.382 172 325.48C172 207.578 267.578 112 385.48 112C430.688 112 472.613 126.052 507.127 150.026L510 147.153C474.727 122.477 431.795 108 385.48 108C265.369 108 168 205.369 168 325.48C168 445.592 265.369 542.961 385.48 542.961C430.466 542.961 472.262 529.302 506.946 505.906L504.064 503.023Z" fill="#8E002C"/>
<mask id="mask0_583_2384" style="mask-type:alpha" maskUnits="userSpaceOnUse" x="-140" y="29" width="946" height="621">
<path d="M-22 361C32.5 294 181.7 183.4 342.5 277C503.3 370.6 664.833 300.333 725.5 253.5" stroke="black" stroke-width="4"/>
<path d="M-22 347.046C32.5 280.046 181.7 169.446 342.5 263.046C503.3 356.646 664.833 286.379 725.5 239.546" stroke="black" stroke-width="4"/>
<path d="M-35 417C19.5 350 168.7 239.4 329.5 333C490.3 426.6 651.833 356.333 712.5 309.5" stroke="black" stroke-width="4"/>
<path d="M-33 375.046C21.5 308.046 170.7 197.446 331.5 291.046C492.3 384.646 653.833 314.379 714.5 267.546" stroke="black" stroke-width="4"/>
<path d="M-46 431.046C8.5 364.046 157.7 253.446 318.5 347.046C479.3 440.646 640.833 370.379 701.5 323.546" stroke="black" stroke-width="4"/>
<path d="M-35 438.046C19.5 371.046 168.7 260.446 329.5 354.046C490.3 447.646 651.833 377.379 712.5 330.546" stroke="black" stroke-width="4"/>
<path d="M-23 445.046C31.5 378.046 180.7 267.446 341.5 361.046C502.3 454.646 663.833 384.379 724.5 337.546" stroke="black" stroke-width="4"/>
<path d="M-9 454.046C45.5 387.046 194.7 276.446 355.5 370.046C516.3 463.646 677.833 393.379 738.5 346.546" stroke="black" stroke-width="4"/>
<path d="M10 465.046C64.5 398.046 213.7 287.446 374.5 381.046C535.3 474.646 696.833 404.379 757.5 357.546" stroke="black" stroke-width="4"/>
<path d="M25 475.046C79.5 408.046 228.7 297.446 389.5 391.046C550.3 484.646 711.833 414.379 772.5 367.546" stroke="black" stroke-width="4"/>
<path d="M40 486.046C94.5 419.046 243.7 308.446 404.5 402.046C565.3 495.646 726.833 425.379 787.5 378.546" stroke="black" stroke-width="4"/>
<path d="M40 494.046C94.5 427.046 243.7 316.446 404.5 410.046C565.3 503.646 726.833 433.379 787.5 386.546" stroke="black" stroke-width="4"/>
<path d="M40 503.046C94.5 436.046 243.7 325.446 404.5 419.046C565.3 512.646 726.833 442.379 787.5 395.546" stroke="black" stroke-width="4"/>
<path d="M36 509.046C90.5 442.046 239.7 331.446 400.5 425.046C561.3 518.646 722.833 448.379 783.5 401.546" stroke="black" stroke-width="4"/>
<path d="M31 514.046C85.5 447.046 234.7 336.446 395.5 430.046C556.3 523.646 717.833 453.379 778.5 406.546" stroke="black" stroke-width="4"/>
<path d="M25 525.046C79.5 458.046 228.7 347.446 389.5 441.046C550.3 534.646 711.833 464.379 772.5 417.546" stroke="black" stroke-width="4"/>
<path d="M16 535.046C70.5 468.046 219.7 357.446 380.5 451.046C541.3 544.646 702.833 474.379 763.5 427.546" stroke="black" stroke-width="4"/>
<path d="M10 547.046C64.5 480.046 213.7 369.446 374.5 463.046C535.3 556.646 696.833 486.379 757.5 439.546" stroke="black" stroke-width="4"/>
<path d="M1 558.046C55.5 491.046 204.7 380.446 365.5 474.046C526.3 567.646 687.833 497.379 748.5 450.546" stroke="black" stroke-width="4"/>
<path d="M-4 570.046C50.5 503.046 199.7 392.446 360.5 486.046C521.3 579.646 682.833 509.379 743.5 462.546" stroke="black" stroke-width="4"/>
<path d="M-4 585.046C50.5 518.046 199.7 407.446 360.5 501.046C521.3 594.646 682.833 524.379 743.5 477.546" stroke="black" stroke-width="4"/>
<path d="M1 598.046C55.5 531.046 204.7 420.446 365.5 514.046C526.3 607.646 687.833 537.379 748.5 490.546" stroke="black" stroke-width="4"/>
<path d="M16 614.046C70.5 547.046 219.7 436.446 380.5 530.046C541.3 623.646 702.833 553.379 763.5 506.546" stroke="black" stroke-width="4"/>
<path d="M25 626.046C79.5 559.046 228.7 448.446 389.5 542.046C550.3 635.646 711.833 565.379 772.5 518.546" stroke="black" stroke-width="4"/>
<path d="M40 637.046C94.5 570.046 243.7 459.446 404.5 553.046C565.3 646.646 726.833 576.379 787.5 529.546" stroke="black" stroke-width="4"/>
<path d="M57 648.046C111.5 581.046 260.7 470.446 421.5 564.046C582.3 657.646 743.833 587.379 804.5 540.546" stroke="black" stroke-width="4"/>
<path d="M-22 334.046C32.5 267.046 181.7 156.446 342.5 250.046C503.3 343.646 664.833 273.379 725.5 226.546" stroke="black" stroke-width="4"/>
<path d="M-35 390.046C19.5 323.046 168.7 212.446 329.5 306.046C490.3 399.646 651.833 329.379 712.5 282.546" stroke="black" stroke-width="4"/>
<path d="M-40 402.046C14.5 335.046 163.7 224.446 324.5 318.046C485.3 411.646 646.833 341.379 707.5 294.546" stroke="black" stroke-width="4"/>
<path d="M-22 315.046C32.5 248.046 181.7 137.446 342.5 231.046C503.3 324.646 664.833 254.379 725.5 207.546" stroke="black" stroke-width="4"/>
<path d="M-22 301.046C32.5 234.046 181.7 123.446 342.5 217.046C503.3 310.646 664.833 240.379 725.5 193.546" stroke="black" stroke-width="4"/>
<path d="M-23 291.046C31.5 224.046 180.7 113.446 341.5 207.046C502.3 300.646 663.833 230.379 724.5 183.546" stroke="black" stroke-width="4"/>
<path d="M-33 274.046C21.5 207.046 170.7 96.4456 331.5 190.046C492.3 283.646 653.833 213.379 714.5 166.546" stroke="black" stroke-width="4"/>
<path d="M-46 255.046C8.5 188.046 157.7 77.4456 318.5 171.046C479.3 264.646 640.833 194.379 701.5 147.546" stroke="black" stroke-width="4"/>
<path d="M-56 241.046C-1.5 174.046 147.7 63.4456 308.5 157.046C469.3 250.646 630.833 180.379 691.5 133.546" stroke="black" stroke-width="4"/>
<path d="M-64 231.046C-9.5 164.046 139.7 53.4456 300.5 147.046C461.3 240.646 622.833 170.379 683.5 123.546" stroke="black" stroke-width="4"/>
<path d="M-69 222.046C-14.5 155.046 134.7 44.4456 295.5 138.046C456.3 231.646 617.833 161.379 678.5 114.546" stroke="black" stroke-width="4"/>
<path d="M-74 214.046C-19.5 147.046 129.7 36.4456 290.5 130.046C451.3 223.646 612.833 153.379 673.5 106.546" stroke="black" stroke-width="4"/>
<path d="M-82 206.046C-27.5 139.046 121.7 28.4456 282.5 122.046C443.3 215.646 604.833 145.379 665.5 98.5459" stroke="black" stroke-width="4"/>
<path d="M-93 195.046C-38.5 128.046 110.7 17.4456 271.5 111.046C432.3 204.646 593.833 134.379 654.5 87.5459" stroke="black" stroke-width="4"/>
<path d="M-109 181.046C-54.5 114.046 94.7 3.44559 255.5 97.0456C416.3 190.646 577.833 120.379 638.5 73.5459" stroke="black" stroke-width="4"/>
<path d="M-116 171.046C-61.5 104.046 87.7 -6.55441 248.5 87.0456C409.3 180.646 570.833 110.379 631.5 63.5459" stroke="black" stroke-width="4"/>
<path d="M-126 161.046C-71.5 94.0456 77.7 -16.5544 238.5 77.0456C399.3 170.646 560.833 100.379 621.5 53.5459" stroke="black" stroke-width="4"/>
<path d="M-138 151.046C-83.5 84.0456 65.7 -26.5544 226.5 67.0456C387.3 160.646 548.833 90.3791 609.5 43.5459" stroke="black" stroke-width="4"/>
</mask>
<g mask="url(#mask0_583_2384)">
<circle cx="388" cy="326" r="191" fill="url(#paint0_linear_583_2384)"/>
</g>
</g>
<path d="M218.112 677C214.613 677 211.413 676.147 208.512 674.44C205.696 672.733 203.435 670.472 201.728 667.656C200.021 664.755 199.168 661.555 199.168 658.056V603.784C199.168 600.285 200.021 597.128 201.728 594.312C203.435 591.411 205.696 589.107 208.512 587.4C211.413 585.693 214.613 584.84 218.112 584.84H291.072V604.808H223.232C221.867 604.808 220.8 605.149 220.032 605.832C219.349 606.515 219.008 607.581 219.008 609.032V652.808C219.008 654.173 219.349 655.24 220.032 656.008C220.8 656.691 221.867 657.032 223.232 657.032H291.072V677H218.112ZM322.338 677C319.01 677 315.938 676.147 313.122 674.44C310.306 672.733 308.045 670.472 306.338 667.656C304.631 664.84 303.778 661.768 303.778 658.44V621.32C303.778 617.992 304.631 614.92 306.338 612.104C308.045 609.288 310.306 607.027 313.122 605.32C315.938 603.613 319.01 602.76 322.338 602.76H360.482C363.895 602.76 367.01 603.613 369.826 605.32C372.642 607.027 374.861 609.288 376.482 612.104C378.189 614.92 379.042 617.992 379.042 621.32V658.44C379.042 661.768 378.189 664.84 376.482 667.656C374.861 670.472 372.642 672.733 369.826 674.44C367.01 676.147 363.895 677 360.482 677H322.338ZM323.362 657.416H359.458V622.344H323.362V657.416ZM389.156 677V621.32C389.156 617.992 390.009 614.92 391.716 612.104C393.423 609.288 395.684 607.027 398.5 605.32C401.316 603.613 404.431 602.76 407.844 602.76H448.804V622.344H408.74V677H389.156ZM476.213 677C472.885 677 469.813 676.147 466.997 674.44C464.181 672.733 461.92 670.472 460.213 667.656C458.506 664.84 457.653 661.768 457.653 658.44V621.32C457.653 617.992 458.506 614.92 460.213 612.104C461.92 609.288 464.181 607.027 466.997 605.32C469.813 603.613 472.885 602.76 476.213 602.76H514.357C517.77 602.76 520.885 603.613 523.701 605.32C526.517 607.027 528.736 609.288 530.357 612.104C532.064 614.92 532.917 617.992 532.917 621.32V649.736H477.237V657.416H532.917V677H476.213ZM477.237 632.584H513.333V622.344H477.237V632.584Z" fill="#8E002C"/>
<defs>
<linearGradient id="paint0_linear_583_2384" x1="388" y1="135" x2="388" y2="517" gradientUnits="userSpaceOnUse">
<stop stop-color="#FFE000"/>
<stop offset="1" stop-color="#8E002C"/>
</linearGradient>
<clipPath id="clip0_583_2384">
<rect width="500" height="500" fill="white" transform="translate(126 75)"/>
</clipPath>
</defs>
</svg>
