<svg width="1416" height="679" viewBox="0 0 1416 679" fill="none" xmlns="http://www.w3.org/2000/svg">
<g clip-path="url(#clip0_583_2392)">
<path fill-rule="evenodd" clip-rule="evenodd" d="M453.064 518.023C419.145 540.723 378.359 553.961 334.48 553.961C216.578 553.961 121 458.382 121 340.48C121 222.578 216.578 127 334.48 127C379.688 127 421.613 141.052 456.127 165.026L459 162.153C423.727 137.477 380.795 123 334.48 123C214.369 123 117 220.369 117 340.48C117 460.592 214.369 557.961 334.48 557.961C379.466 557.961 421.262 544.302 455.946 520.906L453.064 518.023Z" fill="#8E002C"/>
<mask id="mask0_583_2392" style="mask-type:alpha" maskUnits="userSpaceOnUse" x="-191" y="44" width="946" height="621">
<path d="M-73 376C-18.5 309 130.7 198.4 291.5 292C452.3 385.6 613.833 315.333 674.5 268.5" stroke="black" stroke-width="4"/>
<path d="M-73 362.046C-18.5 295.046 130.7 184.446 291.5 278.046C452.3 371.646 613.833 301.379 674.5 254.546" stroke="black" stroke-width="4"/>
<path d="M-86 432C-31.5 365 117.7 254.4 278.5 348C439.3 441.6 600.833 371.333 661.5 324.5" stroke="black" stroke-width="4"/>
<path d="M-84 390.046C-29.5 323.046 119.7 212.446 280.5 306.046C441.3 399.646 602.833 329.379 663.5 282.546" stroke="black" stroke-width="4"/>
<path d="M-97 446.046C-42.5 379.046 106.7 268.446 267.5 362.046C428.3 455.646 589.833 385.379 650.5 338.546" stroke="black" stroke-width="4"/>
<path d="M-86 453.046C-31.5 386.046 117.7 275.446 278.5 369.046C439.3 462.646 600.833 392.379 661.5 345.546" stroke="black" stroke-width="4"/>
<path d="M-74 460.046C-19.5 393.046 129.7 282.446 290.5 376.046C451.3 469.646 612.833 399.379 673.5 352.546" stroke="black" stroke-width="4"/>
<path d="M-60 469.046C-5.5 402.046 143.7 291.446 304.5 385.046C465.3 478.646 626.833 408.379 687.5 361.546" stroke="black" stroke-width="4"/>
<path d="M-41 480.046C13.5 413.046 162.7 302.446 323.5 396.046C484.3 489.646 645.833 419.379 706.5 372.546" stroke="black" stroke-width="4"/>
<path d="M-26 490.046C28.5 423.046 177.7 312.446 338.5 406.046C499.3 499.646 660.833 429.379 721.5 382.546" stroke="black" stroke-width="4"/>
<path d="M-11 501.046C43.5 434.046 192.7 323.446 353.5 417.046C514.3 510.646 675.833 440.379 736.5 393.546" stroke="black" stroke-width="4"/>
<path d="M-11 509.046C43.5 442.046 192.7 331.446 353.5 425.046C514.3 518.646 675.833 448.379 736.5 401.546" stroke="black" stroke-width="4"/>
<path d="M-11 518.046C43.5 451.046 192.7 340.446 353.5 434.046C514.3 527.646 675.833 457.379 736.5 410.546" stroke="black" stroke-width="4"/>
<path d="M-15 524.046C39.5 457.046 188.7 346.446 349.5 440.046C510.3 533.646 671.833 463.379 732.5 416.546" stroke="black" stroke-width="4"/>
<path d="M-20 529.046C34.5 462.046 183.7 351.446 344.5 445.046C505.3 538.646 666.833 468.379 727.5 421.546" stroke="black" stroke-width="4"/>
<path d="M-26 540.046C28.5 473.046 177.7 362.446 338.5 456.046C499.3 549.646 660.833 479.379 721.5 432.546" stroke="black" stroke-width="4"/>
<path d="M-35 550.046C19.5 483.046 168.7 372.446 329.5 466.046C490.3 559.646 651.833 489.379 712.5 442.546" stroke="black" stroke-width="4"/>
<path d="M-41 562.046C13.5 495.046 162.7 384.446 323.5 478.046C484.3 571.646 645.833 501.379 706.5 454.546" stroke="black" stroke-width="4"/>
<path d="M-50 573.046C4.5 506.046 153.7 395.446 314.5 489.046C475.3 582.646 636.833 512.379 697.5 465.546" stroke="black" stroke-width="4"/>
<path d="M-55 585.046C-0.5 518.046 148.7 407.446 309.5 501.046C470.3 594.646 631.833 524.379 692.5 477.546" stroke="black" stroke-width="4"/>
<path d="M-55 600.046C-0.5 533.046 148.7 422.446 309.5 516.046C470.3 609.646 631.833 539.379 692.5 492.546" stroke="black" stroke-width="4"/>
<path d="M-50 613.046C4.5 546.046 153.7 435.446 314.5 529.046C475.3 622.646 636.833 552.379 697.5 505.546" stroke="black" stroke-width="4"/>
<path d="M-35 629.046C19.5 562.046 168.7 451.446 329.5 545.046C490.3 638.646 651.833 568.379 712.5 521.546" stroke="black" stroke-width="4"/>
<path d="M-26 641.046C28.5 574.046 177.7 463.446 338.5 557.046C499.3 650.646 660.833 580.379 721.5 533.546" stroke="black" stroke-width="4"/>
<path d="M-11 652.046C43.5 585.046 192.7 474.446 353.5 568.046C514.3 661.646 675.833 591.379 736.5 544.546" stroke="black" stroke-width="4"/>
<path d="M6 663.046C60.5 596.046 209.7 485.446 370.5 579.046C531.3 672.646 692.833 602.379 753.5 555.546" stroke="black" stroke-width="4"/>
<path d="M-73 349.046C-18.5 282.046 130.7 171.446 291.5 265.046C452.3 358.646 613.833 288.379 674.5 241.546" stroke="black" stroke-width="4"/>
<path d="M-86 405.046C-31.5 338.046 117.7 227.446 278.5 321.046C439.3 414.646 600.833 344.379 661.5 297.546" stroke="black" stroke-width="4"/>
<path d="M-91 417.046C-36.5 350.046 112.7 239.446 273.5 333.046C434.3 426.646 595.833 356.379 656.5 309.546" stroke="black" stroke-width="4"/>
<path d="M-73 330.046C-18.5 263.046 130.7 152.446 291.5 246.046C452.3 339.646 613.833 269.379 674.5 222.546" stroke="black" stroke-width="4"/>
<path d="M-73 316.046C-18.5 249.046 130.7 138.446 291.5 232.046C452.3 325.646 613.833 255.379 674.5 208.546" stroke="black" stroke-width="4"/>
<path d="M-74 306.046C-19.5 239.046 129.7 128.446 290.5 222.046C451.3 315.646 612.833 245.379 673.5 198.546" stroke="black" stroke-width="4"/>
<path d="M-84 289.046C-29.5 222.046 119.7 111.446 280.5 205.046C441.3 298.646 602.833 228.379 663.5 181.546" stroke="black" stroke-width="4"/>
<path d="M-97 270.046C-42.5 203.046 106.7 92.4456 267.5 186.046C428.3 279.646 589.833 209.379 650.5 162.546" stroke="black" stroke-width="4"/>
<path d="M-107 256.046C-52.5 189.046 96.7 78.4456 257.5 172.046C418.3 265.646 579.833 195.379 640.5 148.546" stroke="black" stroke-width="4"/>
<path d="M-115 246.046C-60.5 179.046 88.7 68.4456 249.5 162.046C410.3 255.646 571.833 185.379 632.5 138.546" stroke="black" stroke-width="4"/>
<path d="M-120 237.046C-65.5 170.046 83.7 59.4456 244.5 153.046C405.3 246.646 566.833 176.379 627.5 129.546" stroke="black" stroke-width="4"/>
<path d="M-125 229.046C-70.5 162.046 78.7 51.4456 239.5 145.046C400.3 238.646 561.833 168.379 622.5 121.546" stroke="black" stroke-width="4"/>
<path d="M-133 221.046C-78.5 154.046 70.7 43.4456 231.5 137.046C392.3 230.646 553.833 160.379 614.5 113.546" stroke="black" stroke-width="4"/>
<path d="M-144 210.046C-89.5 143.046 59.7 32.4456 220.5 126.046C381.3 219.646 542.833 149.379 603.5 102.546" stroke="black" stroke-width="4"/>
<path d="M-160 196.046C-105.5 129.046 43.7 18.4456 204.5 112.046C365.3 205.646 526.833 135.379 587.5 88.5459" stroke="black" stroke-width="4"/>
<path d="M-167 186.046C-112.5 119.046 36.7 8.44559 197.5 102.046C358.3 195.646 519.833 125.379 580.5 78.5459" stroke="black" stroke-width="4"/>
<path d="M-177 176.046C-122.5 109.046 26.7 -1.55441 187.5 92.0456C348.3 185.646 509.833 115.379 570.5 68.5459" stroke="black" stroke-width="4"/>
<path d="M-189 166.046C-134.5 99.0456 14.7 -11.5544 175.5 82.0456C336.3 175.646 497.833 105.379 558.5 58.5459" stroke="black" stroke-width="4"/>
</mask>
<g mask="url(#mask0_583_2392)">
<circle cx="337" cy="341" r="191" fill="url(#paint0_linear_583_2392)"/>
</g>
</g>
<path d="M673.8 415C668.333 415 663.333 413.667 658.8 411C654.4 408.333 650.867 404.8 648.2 400.4C645.533 395.867 644.2 390.867 644.2 385.4V300.6C644.2 295.133 645.533 290.2 648.2 285.8C650.867 281.267 654.4 277.667 658.8 275C663.333 272.333 668.333 271 673.8 271H787.8V302.2H681.8C679.667 302.2 678 302.733 676.8 303.8C675.733 304.867 675.2 306.533 675.2 308.8V377.2C675.2 379.333 675.733 381 676.8 382.2C678 383.267 679.667 383.8 681.8 383.8H787.8V415H673.8ZM836.653 415C831.453 415 826.653 413.667 822.253 411C817.853 408.333 814.32 404.8 811.653 400.4C808.986 396 807.653 391.2 807.653 386V328C807.653 322.8 808.986 318 811.653 313.6C814.32 309.2 817.853 305.667 822.253 303C826.653 300.333 831.453 299 836.653 299H896.253C901.586 299 906.453 300.333 910.853 303C915.253 305.667 918.72 309.2 921.253 313.6C923.92 318 925.253 322.8 925.253 328V386C925.253 391.2 923.92 396 921.253 400.4C918.72 404.8 915.253 408.333 910.853 411C906.453 413.667 901.586 415 896.253 415H836.653ZM838.253 384.4H894.653V329.6H838.253V384.4ZM941.056 415V328C941.056 322.8 942.39 318 945.056 313.6C947.723 309.2 951.256 305.667 955.656 303C960.056 300.333 964.923 299 970.256 299H1034.26V329.6H971.656V415H941.056ZM1077.08 415C1071.88 415 1067.08 413.667 1062.68 411C1058.28 408.333 1054.75 404.8 1052.08 400.4C1049.42 396 1048.08 391.2 1048.08 386V328C1048.08 322.8 1049.42 318 1052.08 313.6C1054.75 309.2 1058.28 305.667 1062.68 303C1067.08 300.333 1071.88 299 1077.08 299H1136.68C1142.02 299 1146.88 300.333 1151.28 303C1155.68 305.667 1159.15 309.2 1161.68 313.6C1164.35 318 1165.68 322.8 1165.68 328V372.4H1078.68V384.4H1165.68V415H1077.08ZM1078.68 345.6H1135.08V329.6H1078.68V345.6Z" fill="#8E002C"/>
<defs>
<linearGradient id="paint0_linear_583_2392" x1="337" y1="150" x2="337" y2="532" gradientUnits="userSpaceOnUse">
<stop stop-color="#FFE000"/>
<stop offset="1" stop-color="#8E002C"/>
</linearGradient>
<clipPath id="clip0_583_2392">
<rect width="500" height="500" fill="white" transform="translate(75 90)"/>
</clipPath>
</defs>
</svg>
