<svg id="Secondary_Logo" data-name="Secondary Logo" xmlns="http://www.w3.org/2000/svg" width="1500" height="1500" viewBox="0 0 1500 1500"><defs><style>.cls-1{fill:#f500f8;}.cls-2{fill:#0fd5ff;}.cls-3{fill:#939393;}.cls-4{fill:#ccc;}.cls-5{fill:#fff;}</style></defs><title>Vertical</title><polygon class="cls-1" points="965.51 590.22 1001.085 569.559 880.068 486.797 875.532 548.032 965.51 590.22"/><polygon class="cls-1" points="669.784 431.037 640.002 413.741 624.547 699.227 744.18 766.698 824.125 724.202 709.027 648.199 669.784 431.037"/><polygon class="cls-1" points="1001.085 724.202 776.386 853.936 551.688 724.202 640.002 673.209 751.993 738.248 781.689 721.107 669.784 656.01 776.386 594.468 1001.085 724.202"/><polygon class="cls-1" points="551.688 464.734 640.002 413.741 640.002 673.209 551.688 724.202 551.688 464.734"/><polygon class="cls-1" points="776.386 335 776.386 594.468 669.784 656.01 669.784 396.542 776.386 335"/><polygon class="cls-1" points="888.75 504.119 888.75 538.688 1001.085 603.956 1001.085 724.202 776.386 594.468 776.386 335 1001.085 464.734 1001.085 569.559 888.75 504.119"/><path class="cls-1" d="M343.8145,1090.072v28.922h92.0123v9.2013H343.8145V1165h128.846v-74.928Z"/><rect class="cls-1" x="740.7854" y="1036.1546" width="36.8044" height="53.9173"/><path class="cls-1" d="M1191.7591,1004.538c0-10.491-7.6825-18.0871-18.3461-18.0871h-12.0676v36.1742h12.0676C1184.0766,1022.6251,1191.7591,1015.0292,1191.7591,1004.538Zm-25.8551,13.8448v-27.69h7.3662c8.14,0,13.873,5.8189,13.873,13.8449,0,7.9972-5.7608,13.8448-13.873,13.8448Z"/><polygon class="cls-1" points="924.866 1036.155 1053.712 1036.155 1053.712 1072.959 1007.707 1072.959 1007.707 1090.072 970.873 1090.072 970.873 1072.959 924.866 1072.959 924.866 1036.155"/><polygon class="cls-1" points="415.39 1022.625 410.946 1022.625 410.946 986.451 415.045 986.451 435.34 1014.341 435.34 986.451 439.782 986.451 439.782 1022.625 435.971 1022.625 415.39 994.391 415.39 1022.625"/><polygon class="cls-1" points="326.616 1036.155 455.462 1036.155 455.462 1072.959 363.422 1072.959 363.422 1082.161 455.462 1082.161 455.462 1090.072 326.616 1090.072 326.616 1036.155"/><path class="cls-1" d="M827.6667,1008.465h8.2255l8.3138,14.16h5.1016l-8.6567-14.6761a10.6646,10.6646,0,0,0,7.97-10.4338c0-6.4494-5.0163-11.0643-11.782-11.0643h-13.73v36.1742h4.5586Zm0-17.7145h8.9421c4.4144,0,7.3956,2.8377,7.3956,6.7075,0,3.8983-2.9812,6.7073-7.3956,6.7073h-8.9421Z"/><polygon class="cls-1" points="585.053 1018.268 601.563 1018.268 601.563 1022.625 580.523 1022.625 580.523 986.451 601.018 986.451 601.018 990.751 585.053 990.751 585.053 1001.93 599.672 1001.93 599.672 1006.114 585.053 1006.114 585.053 1018.268"/><path class="cls-1" d="M938.3107,1004.538c0-10.6917-7.9974-18.7176-18.948-18.7176s-18.9173,8.0259-18.9173,18.7176,7.968,18.6891,18.9173,18.6891S938.3107,1015.23,938.3107,1004.538Zm-18.948,14.2462a14.2605,14.2605,0,1,1,14.3041-14.2462A13.9239,13.9239,0,0,1,919.3627,1018.7842Z"/><path class="cls-1" d="M660.124,1008.465h8.2549l8.2844,14.16h5.131l-8.6567-14.6761a10.6633,10.6633,0,0,0,7.9681-10.4338c0-6.4494-5.0163-11.0643-11.7806-11.0643h-13.73v36.1742h4.5292Zm0-17.7145h8.9715c4.4144,0,7.3956,2.8377,7.3956,6.7075,0,3.8983-2.9812,6.7073-7.3956,6.7073H660.124Z"/><polygon class="cls-1" points="1165.732 1036.155 1191.759 1036.155 1191.759 1062.21 1163.897 1090.072 1090.803 1090.072 1062.913 1062.21 1062.913 1036.155 1088.968 1036.155 1127.35 1074.536 1165.732 1036.155"/><path class="cls-1" d="M326.616,1009.1529v-22.702h4.5585v22.358c0,5.9622,4.0127,9.9753,9.6588,9.9753,5.59,0,9.6028-4.0131,9.6028-9.9753v-22.358h4.5585v22.702c0,8.2266-6.0491,14.0742-14.1613,14.0742C332.6651,1023.2271,326.616,1017.38,326.616,1009.1529Z"/><polygon class="cls-1" points="464.663 1036.155 593.509 1036.155 593.509 1090.072 556.703 1090.072 556.703 1072.959 501.467 1072.959 501.467 1090.072 464.663 1090.072 464.663 1036.155"/><polygon class="cls-1" points="786.791 1036.155 915.665 1036.155 915.665 1072.959 823.625 1072.959 823.625 1082.161 915.665 1082.161 915.665 1090.072 786.791 1090.072 786.791 1036.155"/><path class="cls-1" d="M526.5486,1004.538c0-10.491-7.6811-18.0871-18.3448-18.0871H496.1363v36.1742h12.0675C518.8381,1022.6251,526.5486,1015.0292,526.5486,1004.538Zm-25.8551,13.8448v-27.69h7.3676c8.1108,0,13.873,5.8189,13.873,13.8449,0,7.9972-5.7622,13.8448-13.873,13.8448Z"/><polygon class="cls-1" points="602.71 1036.155 731.584 1036.155 731.584 1090.072 694.751 1090.072 694.751 1072.959 639.543 1072.959 639.543 1090.072 602.71 1090.072 602.71 1036.155"/><path class="cls-1" d="M751.2769,1023.2271c-10.6343,0-18.3462-7.9114-18.3462-18.6891,0-10.7491,7.74-18.66,18.2594-18.66,8.7141,0,16.0229,5.4749,17.6282,13.1856H764.117c-1.5466-5.2456-6.707-8.7427-12.84-8.7427-7.9974,0-13.73,5.9048-13.73,14.2175,0,8.3986,5.5886,14.2462,13.73,14.2462,6.65,0,11.866-3.9272,13.1564-9.832H749.9865v-4.3h19.4057C769.1626,1015.5451,761.7391,1023.2271,751.2769,1023.2271Z"/><path class="cls-1" d="M991.8265,1009.1529v-22.702h4.5851v22.358c0,5.9622,3.9848,9.9753,9.6322,9.9753,5.5887,0,9.6014-4.0131,9.6014-9.9753v-22.358h4.5865v22.702c0,8.2266-6.0757,14.0742-14.1879,14.0742C997.8742,1023.2271,991.8265,1017.38,991.8265,1009.1529Z"/><polygon class="cls-1" points="1080.599 1022.625 1076.156 1022.625 1076.156 986.451 1080.254 986.451 1100.578 1014.341 1100.578 986.451 1105.021 986.451 1105.021 1022.625 1101.18 1022.625 1080.599 994.391 1080.599 1022.625"/><path class="cls-1" d="M573.9019,1090.072v38.1233H518.666V1090.072H481.8616V1165H610.7077v-74.928Z"/><path class="cls-1" d="M711.949,1128.1953H656.7411V1090.072H619.9088V1165h128.874v-55.2071H711.949Zm0-38.1233v1.29h36.8338v-1.29Z"/><path class="cls-1" d="M757.9839,1090.072V1165h36.8043v-74.928Z"/><path class="cls-1" d="M932.8634,1118.994v-28.922H803.9893V1165H932.8634v-36.8047h-92.04v-9.2013Z"/><path class="cls-1" d="M988.0713,1090.072V1165h36.8338v-74.928Z"/><path class="cls-1" d="M1108.0018,1090.072l18.1446,18.1443V1165h36.8044v-56.7837l18.1447-18.1443Z"/><rect class="cls-1" x="303.6164" y="1088.6376" width="925.3184" height="2.8664"/><polygon class="cls-2" points="945.446 590.22 981.02 569.559 860.003 486.797 855.467 548.032 945.446 590.22"/><polygon class="cls-2" points="649.719 431.037 619.937 413.741 604.482 699.227 724.115 766.698 804.06 724.202 688.962 648.199 649.719 431.037"/><polygon class="cls-2" points="981.02 724.202 756.321 853.936 531.623 724.202 619.937 673.209 731.928 738.248 761.624 721.107 649.719 656.01 756.321 594.468 981.02 724.202"/><polygon class="cls-2" points="531.623 464.734 619.937 413.741 619.937 673.209 531.623 724.202 531.623 464.734"/><polygon class="cls-2" points="756.321 335 756.321 594.468 649.719 656.01 649.719 396.542 756.321 335"/><polygon class="cls-2" points="868.685 504.119 868.685 538.688 981.02 603.956 981.02 724.202 756.321 594.468 756.321 335 981.02 464.734 981.02 569.559 868.685 504.119"/><path class="cls-2" d="M323.75,1090.072v28.922h92.0123v9.2013H323.75V1165H452.5956v-74.928Z"/><rect class="cls-2" x="720.7204" y="1036.1546" width="36.8044" height="53.9173"/><path class="cls-2" d="M1171.6942,1004.538c0-10.491-7.6825-18.0871-18.3462-18.0871h-12.0675v36.1742h12.0675C1164.0117,1022.6251,1171.6942,1015.0292,1171.6942,1004.538Zm-25.8551,13.8448v-27.69h7.3662c8.14,0,13.873,5.8189,13.873,13.8449,0,7.9972-5.7608,13.8448-13.873,13.8448Z"/><polygon class="cls-2" points="904.801 1036.155 1033.647 1036.155 1033.647 1072.959 987.642 1072.959 987.642 1090.072 950.808 1090.072 950.808 1072.959 904.801 1072.959 904.801 1036.155"/><polygon class="cls-2" points="395.325 1022.625 390.881 1022.625 390.881 986.451 394.98 986.451 415.275 1014.341 415.275 986.451 419.717 986.451 419.717 1022.625 415.906 1022.625 395.325 994.391 395.325 1022.625"/><polygon class="cls-2" points="306.551 1036.155 435.397 1036.155 435.397 1072.959 343.357 1072.959 343.357 1082.161 435.397 1082.161 435.397 1090.072 306.551 1090.072 306.551 1036.155"/><path class="cls-2" d="M807.6017,1008.465h8.2256l8.3137,14.16h5.1016l-8.6566-14.6761a10.6645,10.6645,0,0,0,7.9694-10.4338c0-6.4494-5.0162-11.0643-11.782-11.0643h-13.73v36.1742h4.5585Zm0-17.7145h8.9422c4.4144,0,7.3956,2.8377,7.3956,6.7075,0,3.8983-2.9812,6.7073-7.3956,6.7073h-8.9422Z"/><polygon class="cls-2" points="564.988 1018.268 581.498 1018.268 581.498 1022.625 560.459 1022.625 560.459 986.451 580.953 986.451 580.953 990.751 564.988 990.751 564.988 1001.93 579.607 1001.93 579.607 1006.114 564.988 1006.114 564.988 1018.268"/><path class="cls-2" d="M918.2458,1004.538c0-10.6917-7.9975-18.7176-18.9481-18.7176s-18.9172,8.0259-18.9172,18.7176,7.968,18.6891,18.9172,18.6891S918.2458,1015.23,918.2458,1004.538Zm-18.9481,14.2462a14.2605,14.2605,0,1,1,14.3041-14.2462A13.924,13.924,0,0,1,899.2977,1018.7842Z"/><path class="cls-2" d="M640.0591,1008.465h8.2549l8.2843,14.16h5.131l-8.6566-14.6761a10.6632,10.6632,0,0,0,7.968-10.4338c0-6.4494-5.0162-11.0643-11.7806-11.0643H635.53v36.1742h4.5292Zm0-17.7145h8.9715c4.4144,0,7.3956,2.8377,7.3956,6.7075,0,3.8983-2.9812,6.7073-7.3956,6.7073h-8.9715Z"/><polygon class="cls-2" points="1145.667 1036.155 1171.694 1036.155 1171.694 1062.21 1143.832 1090.072 1070.738 1090.072 1042.848 1062.21 1042.848 1036.155 1068.903 1036.155 1107.285 1074.536 1145.667 1036.155"/><path class="cls-2" d="M306.551,1009.1529v-22.702H311.11v22.358c0,5.9622,4.0127,9.9753,9.6588,9.9753,5.59,0,9.6027-4.0131,9.6027-9.9753v-22.358H334.93v22.702c0,8.2266-6.0492,14.0742-14.1613,14.0742C312.6,1023.2271,306.551,1017.38,306.551,1009.1529Z"/><polygon class="cls-2" points="444.598 1036.155 573.444 1036.155 573.444 1090.072 536.638 1090.072 536.638 1072.959 481.403 1072.959 481.403 1090.072 444.598 1090.072 444.598 1036.155"/><polygon class="cls-2" points="766.726 1036.155 895.6 1036.155 895.6 1072.959 803.56 1072.959 803.56 1082.161 895.6 1082.161 895.6 1090.072 766.726 1090.072 766.726 1036.155"/><path class="cls-2" d="M506.4837,1004.538c0-10.491-7.6811-18.0871-18.3448-18.0871H476.0714v36.1742h12.0675C498.7732,1022.6251,506.4837,1015.0292,506.4837,1004.538Zm-25.8552,13.8448v-27.69h7.3676c8.1108,0,13.8731,5.8189,13.8731,13.8449,0,7.9972-5.7623,13.8448-13.8731,13.8448Z"/><polygon class="cls-2" points="582.645 1036.155 711.519 1036.155 711.519 1090.072 674.686 1090.072 674.686 1072.959 619.478 1072.959 619.478 1090.072 582.645 1090.072 582.645 1036.155"/><path class="cls-2" d="M731.212,1023.2271c-10.6343,0-18.3462-7.9114-18.3462-18.6891,0-10.7491,7.74-18.66,18.2594-18.66,8.714,0,16.0228,5.4749,17.6282,13.1856h-4.7013c-1.5466-5.2456-6.707-8.7427-12.84-8.7427-7.9974,0-13.73,5.9048-13.73,14.2175,0,8.3986,5.5887,14.2462,13.73,14.2462,6.65,0,11.866-3.9272,13.1564-9.832H729.9215v-4.3h19.4057C749.0977,1015.5451,741.6741,1023.2271,731.212,1023.2271Z"/><path class="cls-2" d="M971.7616,1009.1529v-22.702h4.5851v22.358c0,5.9622,3.9847,9.9753,9.6322,9.9753,5.5887,0,9.6014-4.0131,9.6014-9.9753v-22.358h4.5865v22.702c0,8.2266-6.0757,14.0742-14.1879,14.0742C977.8093,1023.2271,971.7616,1017.38,971.7616,1009.1529Z"/><polygon class="cls-2" points="1060.534 1022.625 1056.091 1022.625 1056.091 986.451 1060.189 986.451 1080.513 1014.341 1080.513 986.451 1084.956 986.451 1084.956 1022.625 1081.115 1022.625 1060.534 994.391 1060.534 1022.625"/><path class="cls-2" d="M553.837,1090.072v38.1233H498.601V1090.072H461.7967V1165h128.846v-74.928Z"/><path class="cls-2" d="M691.8841,1128.1953H636.6762V1090.072H599.8438V1165H728.7179v-55.2071H691.8841Zm0-38.1233v1.29h36.8338v-1.29Z"/><path class="cls-2" d="M737.919,1090.072V1165h36.8043v-74.928Z"/><path class="cls-2" d="M912.7985,1118.994v-28.922H783.9244V1165H912.7985v-36.8047h-92.04v-9.2013Z"/><path class="cls-2" d="M968.0064,1090.072V1165H1004.84v-74.928Z"/><path class="cls-2" d="M1087.9369,1090.072l18.1446,18.1443V1165h36.8044v-56.7837l18.1446-18.1443Z"/><rect class="cls-2" x="283.5515" y="1088.6376" width="925.3184" height="2.8664"/><polygon class="cls-3" points="956.911 590.22 992.485 569.559 871.468 486.797 866.932 548.032 956.911 590.22"/><polygon class="cls-4" points="661.185 431.037 631.403 413.741 615.948 699.227 735.581 766.698 815.526 724.202 700.428 648.199 661.185 431.037"/><polygon class="cls-3" points="992.485 724.202 767.787 853.936 543.088 724.202 631.403 673.209 743.393 738.248 773.09 721.107 661.185 656.01 767.787 594.468 992.485 724.202"/><polygon class="cls-5" points="543.088 464.734 631.403 413.741 631.403 673.209 543.088 724.202 543.088 464.734"/><polygon class="cls-5" points="767.787 335 767.787 594.468 661.185 656.01 661.185 396.542 767.787 335"/><polygon class="cls-4" points="880.15 504.119 880.15 538.688 992.485 603.956 992.485 724.202 767.787 594.468 767.787 335 992.485 464.734 992.485 569.559 880.15 504.119"/><path class="cls-5" d="M335.2152,1090.072v28.922h92.0123v9.2013H335.2152V1165H464.0613v-74.928Z"/><rect class="cls-5" x="732.1861" y="1036.1546" width="36.8044" height="53.9173"/><path class="cls-5" d="M1183.16,1004.538c0-10.491-7.6825-18.0871-18.3462-18.0871h-12.0675v36.1742h12.0675C1175.4774,1022.6251,1183.16,1015.0292,1183.16,1004.538Zm-25.8552,13.8448v-27.69h7.3662c8.14,0,13.8731,5.8189,13.8731,13.8449,0,7.9972-5.7609,13.8448-13.8731,13.8448Z"/><polygon class="cls-5" points="916.267 1036.155 1045.113 1036.155 1045.113 1072.959 999.107 1072.959 999.107 1090.072 962.274 1090.072 962.274 1072.959 916.267 1072.959 916.267 1036.155"/><polygon class="cls-5" points="406.79 1022.625 402.347 1022.625 402.347 986.451 406.446 986.451 426.74 1014.341 426.74 986.451 431.183 986.451 431.183 1022.625 427.372 1022.625 406.79 994.391 406.79 1022.625"/><polygon class="cls-5" points="318.017 1036.155 446.863 1036.155 446.863 1072.959 354.822 1072.959 354.822 1082.161 446.863 1082.161 446.863 1090.072 318.017 1090.072 318.017 1036.155"/><path class="cls-5" d="M819.0674,1008.465h8.2256l8.3137,14.16h5.1016l-8.6566-14.6761a10.6645,10.6645,0,0,0,7.9694-10.4338c0-6.4494-5.0162-11.0643-11.782-11.0643h-13.73v36.1742h4.5585Zm0-17.7145H828.01c4.4144,0,7.3956,2.8377,7.3956,6.7075,0,3.8983-2.9812,6.7073-7.3956,6.7073h-8.9422Z"/><polygon class="cls-5" points="576.453 1018.268 592.963 1018.268 592.963 1022.625 571.924 1022.625 571.924 986.451 592.419 986.451 592.419 990.751 576.453 990.751 576.453 1001.93 591.072 1001.93 591.072 1006.114 576.453 1006.114 576.453 1018.268"/><path class="cls-5" d="M929.7114,1004.538c0-10.6917-7.9974-18.7176-18.948-18.7176s-18.9172,8.0259-18.9172,18.7176,7.968,18.6891,18.9172,18.6891S929.7114,1015.23,929.7114,1004.538Zm-18.948,14.2462a14.2605,14.2605,0,1,1,14.3041-14.2462A13.924,13.924,0,0,1,910.7634,1018.7842Z"/><path class="cls-5" d="M651.5247,1008.465h8.255l8.2843,14.16h5.131l-8.6566-14.6761a10.6632,10.6632,0,0,0,7.968-10.4338c0-6.4494-5.0162-11.0643-11.7806-11.0643h-13.73v36.1742h4.5291Zm0-17.7145h8.9716c4.4144,0,7.3956,2.8377,7.3956,6.7075,0,3.8983-2.9812,6.7073-7.3956,6.7073h-8.9716Z"/><polygon class="cls-5" points="1157.133 1036.155 1183.16 1036.155 1183.16 1062.21 1155.298 1090.072 1082.204 1090.072 1054.314 1062.21 1054.314 1036.155 1080.369 1036.155 1118.751 1074.536 1157.133 1036.155"/><path class="cls-5" d="M318.0167,1009.1529v-22.702h4.5586v22.358c0,5.9622,4.0127,9.9753,9.6587,9.9753,5.59,0,9.6028-4.0131,9.6028-9.9753v-22.358h4.5586v22.702c0,8.2266-6.0492,14.0742-14.1614,14.0742C324.0659,1023.2271,318.0167,1017.38,318.0167,1009.1529Z"/><polygon class="cls-5" points="456.064 1036.155 584.91 1036.155 584.91 1090.072 548.104 1090.072 548.104 1072.959 492.868 1072.959 492.868 1090.072 456.064 1090.072 456.064 1036.155"/><polygon class="cls-5" points="778.192 1036.155 907.066 1036.155 907.066 1072.959 815.025 1072.959 815.025 1082.161 907.066 1082.161 907.066 1090.072 778.192 1090.072 778.192 1036.155"/><path class="cls-5" d="M517.9494,1004.538c0-10.491-7.6811-18.0871-18.3448-18.0871H487.5371v36.1742h12.0675C510.2389,1022.6251,517.9494,1015.0292,517.9494,1004.538Zm-25.8552,13.8448v-27.69h7.3676c8.1108,0,13.873,5.8189,13.873,13.8449,0,7.9972-5.7622,13.8448-13.873,13.8448Z"/><polygon class="cls-5" points="594.111 1036.155 722.985 1036.155 722.985 1090.072 686.151 1090.072 686.151 1072.959 630.943 1072.959 630.943 1090.072 594.111 1090.072 594.111 1036.155"/><path class="cls-5" d="M742.6777,1023.2271c-10.6343,0-18.3462-7.9114-18.3462-18.6891,0-10.7491,7.74-18.66,18.2594-18.66,8.714,0,16.0228,5.4749,17.6282,13.1856h-4.7013c-1.5466-5.2456-6.707-8.7427-12.84-8.7427-7.9975,0-13.73,5.9048-13.73,14.2175,0,8.3986,5.5887,14.2462,13.73,14.2462,6.6495,0,11.8659-3.9272,13.1564-9.832H741.3872v-4.3h19.4057C760.5634,1015.5451,753.14,1023.2271,742.6777,1023.2271Z"/><path class="cls-5" d="M983.2272,1009.1529v-22.702h4.5852v22.358c0,5.9622,3.9847,9.9753,9.6322,9.9753,5.5886,0,9.6013-4.0131,9.6013-9.9753v-22.358h4.5866v22.702c0,8.2266-6.0758,14.0742-14.1879,14.0742C989.275,1023.2271,983.2272,1017.38,983.2272,1009.1529Z"/><polygon class="cls-5" points="1071.999 1022.625 1067.557 1022.625 1067.557 986.451 1071.655 986.451 1091.979 1014.341 1091.979 986.451 1096.421 986.451 1096.421 1022.625 1092.581 1022.625 1071.999 994.391 1071.999 1022.625"/><path class="cls-5" d="M565.3026,1090.072v38.1233H510.0667V1090.072H473.2624V1165h128.846v-74.928Z"/><path class="cls-5" d="M703.35,1128.1953h-55.208V1090.072H611.31V1165h128.874v-55.2071H703.35Zm0-38.1233v1.29h36.8337v-1.29Z"/><path class="cls-5" d="M749.3846,1090.072V1165H786.189v-74.928Z"/><path class="cls-5" d="M924.2641,1118.994v-28.922H795.39V1165h128.874v-36.8047h-92.04v-9.2013Z"/><path class="cls-5" d="M979.4721,1090.072V1165h36.8337v-74.928Z"/><path class="cls-5" d="M1099.4025,1090.072l18.1447,18.1443V1165h36.8044v-56.7837l18.1446-18.1443Z"/><rect class="cls-5" x="295.0171" y="1088.6376" width="925.3184" height="2.8664"/></svg>