<svg id="Secondary_logo" data-name="Secondary logo" xmlns="http://www.w3.org/2000/svg" width="1500" height="1500" viewBox="0 0 1500 1500"><defs><style>.cls-1{fill:#f500f8;}.cls-2{fill:#0fd5ff;}.cls-3{fill:#939393;}.cls-4{fill:#ccc;}.cls-5{fill:#fff;}</style></defs><title>Horizontal</title><polygon class="cls-1" points="436.422 747.209 461.593 732.59 375.965 674.03 372.756 717.358 436.422 747.209"/><polygon class="cls-1" points="227.174 634.575 206.101 622.337 195.166 824.34 279.815 872.08 336.382 842.011 254.942 788.233 227.174 634.575"/><polygon class="cls-1" points="461.593 842.011 302.603 933.807 143.613 842.011 206.101 805.93 285.343 851.949 306.355 839.821 227.174 793.76 302.603 750.215 461.593 842.011"/><polygon class="cls-1" points="143.613 658.419 206.101 622.337 206.101 805.93 143.613 842.011 143.613 658.419"/><polygon class="cls-1" points="302.603 566.622 302.603 750.215 227.174 793.76 227.174 610.168 302.603 566.622"/><polygon class="cls-1" points="382.108 686.286 382.108 710.746 461.593 756.928 461.593 842.011 302.603 750.215 302.603 566.622 461.593 658.419 461.593 732.59 382.108 686.286"/><polygon class="cls-2" points="422.225 747.209 447.396 732.59 361.768 674.03 358.558 717.358 422.225 747.209"/><polygon class="cls-2" points="212.977 634.575 191.904 622.337 180.968 824.34 265.618 872.08 322.184 842.011 240.744 788.233 212.977 634.575"/><polygon class="cls-2" points="447.396 842.011 288.406 933.807 129.415 842.011 191.904 805.93 271.146 851.949 292.158 839.821 212.977 793.76 288.406 750.215 447.396 842.011"/><polygon class="cls-2" points="129.415 658.419 191.904 622.337 191.904 805.93 129.415 842.011 129.415 658.419"/><polygon class="cls-2" points="288.406 566.622 288.406 750.215 212.977 793.76 212.977 610.168 288.406 566.622"/><polygon class="cls-2" points="367.911 686.286 367.911 710.746 447.396 756.928 447.396 842.011 288.406 750.215 288.406 566.622 447.396 658.419 447.396 732.59 367.911 686.286"/><polygon class="cls-3" points="430.338 747.209 455.509 732.59 369.881 674.03 366.671 717.358 430.338 747.209"/><polygon class="cls-4" points="221.09 634.575 200.017 622.337 189.081 824.34 273.731 872.08 330.297 842.011 248.857 788.233 221.09 634.575"/><polygon class="cls-3" points="455.509 842.011 296.518 933.807 137.528 842.011 200.017 805.93 279.258 851.949 300.271 839.821 221.09 793.76 296.518 750.215 455.509 842.011"/><polygon class="cls-5" points="137.528 658.419 200.017 622.337 200.017 805.93 137.528 842.011 137.528 658.419"/><polygon class="cls-5" points="296.518 566.622 296.518 750.215 221.09 793.76 221.09 610.168 296.518 566.622"/><polygon class="cls-4" points="376.024 686.286 376.024 710.746 455.509 756.928 455.509 842.011 296.518 750.215 296.518 566.622 455.509 658.419 455.509 732.59 376.024 686.286"/><path class="cls-1" d="M544.0547,764.0776V793H636.067v9.2013H544.0547v36.8047H672.9008v-74.928Z"/><rect class="cls-1" x="941.0257" y="710.1603" width="36.8044" height="53.9173"/><path class="cls-1" d="M1391.9994,678.5436c0-10.491-7.6825-18.0871-18.3462-18.0871h-12.0675v36.1742h12.0675C1384.3169,696.6307,1391.9994,689.0348,1391.9994,678.5436Zm-25.8551,13.8448v-27.69h7.3662c8.14,0,13.873,5.819,13.873,13.8449,0,7.9972-5.7608,13.8448-13.873,13.8448Z"/><polygon class="cls-1" points="1125.106 710.16 1253.952 710.16 1253.952 746.965 1207.947 746.965 1207.947 764.078 1171.113 764.078 1171.113 746.965 1125.106 746.965 1125.106 710.16"/><polygon class="cls-1" points="615.63 696.631 611.186 696.631 611.186 660.456 615.286 660.456 635.58 688.347 635.58 660.456 640.022 660.456 640.022 696.631 636.211 696.631 615.63 668.397 615.63 696.631"/><polygon class="cls-1" points="526.856 710.16 655.702 710.16 655.702 746.965 563.662 746.965 563.662 756.166 655.702 756.166 655.702 764.078 526.856 764.078 526.856 710.16"/><path class="cls-1" d="M1027.907,682.4706h8.2255l8.3137,14.16h5.1016l-8.6566-14.6761a10.6645,10.6645,0,0,0,7.9694-10.4338c0-6.4494-5.0162-11.0643-11.782-11.0643h-13.73v36.1742h4.5586Zm0-17.7145h8.9421c4.4144,0,7.3956,2.8377,7.3956,6.7075,0,3.8983-2.9812,6.7073-7.3956,6.7073h-8.9421Z"/><polygon class="cls-1" points="785.293 692.274 801.803 692.274 801.803 696.631 780.764 696.631 780.764 660.456 801.258 660.456 801.258 664.756 785.293 664.756 785.293 675.935 799.912 675.935 799.912 680.12 785.293 680.12 785.293 692.274"/><path class="cls-1" d="M1138.551,678.5436c0-10.6917-7.9975-18.7176-18.9481-18.7176s-18.9172,8.0259-18.9172,18.7176,7.968,18.6891,18.9172,18.6891S1138.551,689.2353,1138.551,678.5436ZM1119.6029,692.79a14.2605,14.2605,0,1,1,14.3041-14.2462A13.924,13.924,0,0,1,1119.6029,692.79Z"/><path class="cls-1" d="M860.3643,682.4706h8.2549l8.2843,14.16h5.131l-8.6566-14.6761a10.6632,10.6632,0,0,0,7.968-10.4338c0-6.4494-5.0162-11.0643-11.7806-11.0643h-13.73v36.1742h4.5292Zm0-17.7145h8.9715c4.4144,0,7.3956,2.8377,7.3956,6.7075,0,3.8983-2.9812,6.7073-7.3956,6.7073h-8.9715Z"/><polygon class="cls-1" points="1365.972 710.16 1391.999 710.16 1391.999 736.216 1364.137 764.078 1291.044 764.078 1263.153 736.216 1263.153 710.16 1289.209 710.16 1327.59 748.541 1365.972 710.16"/><path class="cls-1" d="M526.8562,683.1585v-22.702h4.5586v22.358c0,5.9622,4.0127,9.9753,9.6588,9.9753,5.59,0,9.6027-4.0131,9.6027-9.9753v-22.358h4.5586v22.702c0,8.2266-6.0492,14.0742-14.1613,14.0742C532.9054,697.2327,526.8562,691.3851,526.8562,683.1585Z"/><polygon class="cls-1" points="664.903 710.16 793.749 710.16 793.749 764.078 756.944 764.078 756.944 746.965 701.708 746.965 701.708 764.078 664.903 764.078 664.903 710.16"/><polygon class="cls-1" points="987.031 710.16 1115.905 710.16 1115.905 746.965 1023.865 746.965 1023.865 756.166 1115.905 756.166 1115.905 764.078 987.031 764.078 987.031 710.16"/><path class="cls-1" d="M726.7889,678.5436c0-10.491-7.6811-18.0871-18.3448-18.0871H696.3766v36.1742h12.0675C719.0784,696.6307,726.7889,689.0348,726.7889,678.5436Zm-25.8552,13.8448v-27.69h7.3676c8.1108,0,13.8731,5.819,13.8731,13.8449,0,7.9972-5.7623,13.8448-13.8731,13.8448Z"/><polygon class="cls-1" points="802.951 710.16 931.825 710.16 931.825 764.078 894.991 764.078 894.991 746.965 839.783 746.965 839.783 764.078 802.951 764.078 802.951 710.16"/><path class="cls-1" d="M951.5172,697.2327c-10.6343,0-18.3462-7.9114-18.3462-18.6891,0-10.7491,7.74-18.66,18.2594-18.66,8.714,0,16.0228,5.4749,17.6282,13.1856h-4.7013c-1.5466-5.2456-6.707-8.7427-12.84-8.7427-7.9974,0-13.73,5.9048-13.73,14.2175,0,8.3986,5.5887,14.2462,13.73,14.2462,6.65,0,11.866-3.9272,13.1564-9.832H950.2267v-4.3h19.4057C969.4029,689.5507,961.9793,697.2327,951.5172,697.2327Z"/><path class="cls-1" d="M1192.0668,683.1585v-22.702h4.5851v22.358c0,5.9622,3.9847,9.9753,9.6322,9.9753,5.5887,0,9.6014-4.0131,9.6014-9.9753v-22.358h4.5865v22.702c0,8.2266-6.0757,14.0742-14.1879,14.0742C1198.1145,697.2327,1192.0668,691.3851,1192.0668,683.1585Z"/><polygon class="cls-1" points="1280.839 696.631 1276.397 696.631 1276.397 660.456 1280.495 660.456 1300.819 688.347 1300.819 660.456 1305.261 660.456 1305.261 696.631 1301.42 696.631 1280.839 668.397 1280.839 696.631"/><path class="cls-1" d="M774.1422,764.0776v38.1233h-55.236V764.0776H682.1019v74.928h128.846v-74.928Z"/><path class="cls-1" d="M912.1893,802.2009H856.9814V764.0776H820.149v74.928H949.0231V783.7985H912.1893Zm0-38.1233v1.29h36.8338v-1.29Z"/><path class="cls-1" d="M958.2242,764.0776v74.928h36.8043v-74.928Z"/><path class="cls-1" d="M1133.1037,793v-28.922H1004.23v74.928h128.8741V802.2009h-92.04V793Z"/><path class="cls-1" d="M1188.3116,764.0776v74.928h36.8337v-74.928Z"/><path class="cls-1" d="M1308.2421,764.0776l18.1446,18.1443v56.7837h36.8044V782.2219l18.1446-18.1443Z"/><rect class="cls-1" x="503.8567" y="762.6432" width="925.3184" height="2.8664"/><path class="cls-2" d="M523.99,764.0776V793h92.0123v9.2013H523.99v36.8047H652.8359v-74.928Z"/><rect class="cls-2" x="920.9607" y="710.1603" width="36.8044" height="53.9173"/><path class="cls-2" d="M1371.9345,678.5436c0-10.491-7.6825-18.0871-18.3462-18.0871h-12.0675v36.1742h12.0675C1364.252,696.6307,1371.9345,689.0348,1371.9345,678.5436Zm-25.8551,13.8448v-27.69h7.3661c8.14,0,13.8731,5.819,13.8731,13.8449,0,7.9972-5.7609,13.8448-13.8731,13.8448Z"/><polygon class="cls-2" points="1105.041 710.16 1233.887 710.16 1233.887 746.965 1187.882 746.965 1187.882 764.078 1151.048 764.078 1151.048 746.965 1105.041 746.965 1105.041 710.16"/><polygon class="cls-2" points="595.565 696.631 591.121 696.631 591.121 660.456 595.221 660.456 615.515 688.347 615.515 660.456 619.957 660.456 619.957 696.631 616.146 696.631 595.565 668.397 595.565 696.631"/><polygon class="cls-2" points="506.791 710.16 635.637 710.16 635.637 746.965 543.597 746.965 543.597 756.166 635.637 756.166 635.637 764.078 506.791 764.078 506.791 710.16"/><path class="cls-2" d="M1007.842,682.4706h8.2256l8.3137,14.16h5.1016l-8.6566-14.6761a10.6645,10.6645,0,0,0,7.9694-10.4338c0-6.4494-5.0162-11.0643-11.782-11.0643h-13.73v36.1742h4.5585Zm0-17.7145h8.9422c4.4144,0,7.3956,2.8377,7.3956,6.7075,0,3.8983-2.9812,6.7073-7.3956,6.7073h-8.9422Z"/><polygon class="cls-2" points="765.228 692.274 781.738 692.274 781.738 696.631 760.699 696.631 760.699 660.456 781.193 660.456 781.193 664.756 765.228 664.756 765.228 675.935 779.847 675.935 779.847 680.12 765.228 680.12 765.228 692.274"/><path class="cls-2" d="M1118.486,678.5436c0-10.6917-7.9974-18.7176-18.948-18.7176s-18.9172,8.0259-18.9172,18.7176,7.968,18.6891,18.9172,18.6891S1118.486,689.2353,1118.486,678.5436ZM1099.538,692.79a14.2605,14.2605,0,1,1,14.3041-14.2462A13.924,13.924,0,0,1,1099.538,692.79Z"/><path class="cls-2" d="M840.2993,682.4706h8.255l8.2843,14.16h5.131l-8.6566-14.6761a10.6632,10.6632,0,0,0,7.968-10.4338c0-6.4494-5.0162-11.0643-11.7806-11.0643H835.77v36.1742h4.5291Zm0-17.7145h8.9716c4.4144,0,7.3956,2.8377,7.3956,6.7075,0,3.8983-2.9812,6.7073-7.3956,6.7073h-8.9716Z"/><polygon class="cls-2" points="1345.907 710.16 1371.934 710.16 1371.934 736.216 1344.072 764.078 1270.979 764.078 1243.088 736.216 1243.088 710.16 1269.144 710.16 1307.525 748.541 1345.907 710.16"/><path class="cls-2" d="M506.7913,683.1585v-22.702H511.35v22.358c0,5.9622,4.0127,9.9753,9.6587,9.9753,5.59,0,9.6028-4.0131,9.6028-9.9753v-22.358H535.17v22.702c0,8.2266-6.0492,14.0742-14.1614,14.0742C512.8405,697.2327,506.7913,691.3851,506.7913,683.1585Z"/><polygon class="cls-2" points="644.838 710.16 773.685 710.16 773.685 764.078 736.879 764.078 736.879 746.965 681.643 746.965 681.643 764.078 644.838 764.078 644.838 710.16"/><polygon class="cls-2" points="966.966 710.16 1095.84 710.16 1095.84 746.965 1003.8 746.965 1003.8 756.166 1095.84 756.166 1095.84 764.078 966.966 764.078 966.966 710.16"/><path class="cls-2" d="M706.724,678.5436c0-10.491-7.6811-18.0871-18.3448-18.0871H676.3117v36.1742h12.0675C699.0135,696.6307,706.724,689.0348,706.724,678.5436Zm-25.8552,13.8448v-27.69h7.3676c8.1108,0,13.873,5.819,13.873,13.8449,0,7.9972-5.7622,13.8448-13.873,13.8448Z"/><polygon class="cls-2" points="782.886 710.16 911.76 710.16 911.76 764.078 874.926 764.078 874.926 746.965 819.718 746.965 819.718 764.078 782.886 764.078 782.886 710.16"/><path class="cls-2" d="M931.4523,697.2327c-10.6343,0-18.3462-7.9114-18.3462-18.6891,0-10.7491,7.74-18.66,18.2594-18.66,8.714,0,16.0228,5.4749,17.6282,13.1856h-4.7013c-1.5466-5.2456-6.707-8.7427-12.84-8.7427-7.9975,0-13.73,5.9048-13.73,14.2175,0,8.3986,5.5887,14.2462,13.73,14.2462,6.6495,0,11.8659-3.9272,13.1564-9.832H930.1618v-4.3h19.4057C949.338,689.5507,941.9144,697.2327,931.4523,697.2327Z"/><path class="cls-2" d="M1172.0018,683.1585v-22.702h4.5852v22.358c0,5.9622,3.9847,9.9753,9.6322,9.9753,5.5886,0,9.6013-4.0131,9.6013-9.9753v-22.358h4.5866v22.702c0,8.2266-6.0758,14.0742-14.1879,14.0742C1178.05,697.2327,1172.0018,691.3851,1172.0018,683.1585Z"/><polygon class="cls-2" points="1260.774 696.631 1256.332 696.631 1256.332 660.456 1260.43 660.456 1280.754 688.347 1280.754 660.456 1285.196 660.456 1285.196 696.631 1281.355 696.631 1260.774 668.397 1260.774 696.631"/><path class="cls-2" d="M754.0773,764.0776v38.1233h-55.236V764.0776H662.037v74.928H790.883v-74.928Z"/><path class="cls-2" d="M892.1244,802.2009H836.9165V764.0776H800.0841v74.928h128.874V783.7985H892.1244Zm0-38.1233v1.29h36.8337v-1.29Z"/><path class="cls-2" d="M938.1592,764.0776v74.928h36.8044v-74.928Z"/><path class="cls-2" d="M1113.0387,793v-28.922H984.1647v74.928h128.874V802.2009h-92.04V793Z"/><path class="cls-2" d="M1168.2467,764.0776v74.928H1205.08v-74.928Z"/><path class="cls-2" d="M1288.1771,764.0776l18.1447,18.1443v56.7837h36.8044V782.2219l18.1446-18.1443Z"/><rect class="cls-2" x="483.7917" y="762.6432" width="925.3184" height="2.8664"/><path class="cls-5" d="M535.4555,764.0776V793h92.0123v9.2013H535.4555v36.8047h128.846v-74.928Z"/><rect class="cls-5" x="932.4264" y="710.1603" width="36.8044" height="53.9173"/><path class="cls-5" d="M1383.4,678.5436c0-10.491-7.6825-18.0871-18.3462-18.0871h-12.0675v36.1742h12.0675C1375.7177,696.6307,1383.4,689.0348,1383.4,678.5436Zm-25.8552,13.8448v-27.69h7.3662c8.14,0,13.873,5.819,13.873,13.8449,0,7.9972-5.7608,13.8448-13.873,13.8448Z"/><polygon class="cls-5" points="1116.507 710.16 1245.353 710.16 1245.353 746.965 1199.348 746.965 1199.348 764.078 1162.514 764.078 1162.514 746.965 1116.507 746.965 1116.507 710.16"/><polygon class="cls-5" points="607.031 696.631 602.587 696.631 602.587 660.456 606.686 660.456 626.981 688.347 626.981 660.456 631.423 660.456 631.423 696.631 627.612 696.631 607.031 668.397 607.031 696.631"/><polygon class="cls-5" points="518.257 710.16 647.103 710.16 647.103 746.965 555.063 746.965 555.063 756.166 647.103 756.166 647.103 764.078 518.257 764.078 518.257 710.16"/><path class="cls-5" d="M1019.3077,682.4706h8.2256l8.3137,14.16h5.1016l-8.6566-14.6761a10.6645,10.6645,0,0,0,7.9694-10.4338c0-6.4494-5.0163-11.0643-11.782-11.0643h-13.73v36.1742h4.5586Zm0-17.7145h8.9422c4.4144,0,7.3955,2.8377,7.3955,6.7075,0,3.8983-2.9811,6.7073-7.3955,6.7073h-8.9422Z"/><polygon class="cls-5" points="776.694 692.274 793.204 692.274 793.204 696.631 772.165 696.631 772.165 660.456 792.659 660.456 792.659 664.756 776.694 664.756 776.694 675.935 791.313 675.935 791.313 680.12 776.694 680.12 776.694 692.274"/><path class="cls-5" d="M1129.9517,678.5436c0-10.6917-7.9974-18.7176-18.948-18.7176s-18.9173,8.0259-18.9173,18.7176,7.9681,18.6891,18.9173,18.6891S1129.9517,689.2353,1129.9517,678.5436Zm-18.948,14.2462a14.2605,14.2605,0,1,1,14.3041-14.2462A13.9239,13.9239,0,0,1,1111.0037,692.79Z"/><path class="cls-5" d="M851.765,682.4706h8.255l8.2843,14.16h5.131l-8.6566-14.6761a10.6632,10.6632,0,0,0,7.968-10.4338c0-6.4494-5.0163-11.0643-11.7806-11.0643h-13.73v36.1742h4.5292Zm0-17.7145h8.9716c4.4144,0,7.3955,2.8377,7.3955,6.7075,0,3.8983-2.9811,6.7073-7.3955,6.7073H851.765Z"/><polygon class="cls-5" points="1357.373 710.16 1383.4 710.16 1383.4 736.216 1355.538 764.078 1282.444 764.078 1254.554 736.216 1254.554 710.16 1280.609 710.16 1318.991 748.541 1357.373 710.16"/><path class="cls-5" d="M518.257,683.1585v-22.702h4.5585v22.358c0,5.9622,4.0127,9.9753,9.6588,9.9753,5.59,0,9.6028-4.0131,9.6028-9.9753v-22.358h4.5585v22.702c0,8.2266-6.0491,14.0742-14.1613,14.0742C524.3061,697.2327,518.257,691.3851,518.257,683.1585Z"/><polygon class="cls-5" points="656.304 710.16 785.15 710.16 785.15 764.078 748.344 764.078 748.344 746.965 693.108 746.965 693.108 764.078 656.304 764.078 656.304 710.16"/><polygon class="cls-5" points="978.432 710.16 1107.306 710.16 1107.306 746.965 1015.266 746.965 1015.266 756.166 1107.306 756.166 1107.306 764.078 978.432 764.078 978.432 710.16"/><path class="cls-5" d="M718.19,678.5436c0-10.491-7.6811-18.0871-18.3448-18.0871H687.7773v36.1742h12.0675C710.4791,696.6307,718.19,689.0348,718.19,678.5436Zm-25.8551,13.8448v-27.69h7.3676c8.1108,0,13.873,5.819,13.873,13.8449,0,7.9972-5.7622,13.8448-13.873,13.8448Z"/><polygon class="cls-5" points="794.351 710.16 923.225 710.16 923.225 764.078 886.392 764.078 886.392 746.965 831.184 746.965 831.184 764.078 794.351 764.078 794.351 710.16"/><path class="cls-5" d="M942.9179,697.2327c-10.6343,0-18.3462-7.9114-18.3462-18.6891,0-10.7491,7.74-18.66,18.26-18.66,8.714,0,16.0228,5.4749,17.6282,13.1856H955.758c-1.5465-5.2456-6.7069-8.7427-12.84-8.7427-7.9974,0-13.73,5.9048-13.73,14.2175,0,8.3986,5.5887,14.2462,13.73,14.2462,6.65,0,11.866-3.9272,13.1564-9.832H941.6275v-4.3h19.4057C960.8037,689.5507,953.38,697.2327,942.9179,697.2327Z"/><path class="cls-5" d="M1183.4675,683.1585v-22.702h4.5852v22.358c0,5.9622,3.9847,9.9753,9.6321,9.9753,5.5887,0,9.6014-4.0131,9.6014-9.9753v-22.358h4.5866v22.702c0,8.2266-6.0758,14.0742-14.188,14.0742C1189.5153,697.2327,1183.4675,691.3851,1183.4675,683.1585Z"/><polygon class="cls-5" points="1272.24 696.631 1267.797 696.631 1267.797 660.456 1271.895 660.456 1292.219 688.347 1292.219 660.456 1296.662 660.456 1296.662 696.631 1292.821 696.631 1272.24 668.397 1272.24 696.631"/><path class="cls-5" d="M765.5429,764.0776v38.1233H710.307V764.0776H673.5026v74.928H802.3487v-74.928Z"/><path class="cls-5" d="M903.59,802.2009h-55.208V764.0776H811.55v74.928h128.874V783.7985H903.59Zm0-38.1233v1.29h36.8337v-1.29Z"/><path class="cls-5" d="M949.6249,764.0776v74.928h36.8044v-74.928Z"/><path class="cls-5" d="M1124.5044,793v-28.922H995.63v74.928h128.874V802.2009h-92.04V793Z"/><path class="cls-5" d="M1179.7123,764.0776v74.928h36.8338v-74.928Z"/><path class="cls-5" d="M1299.6428,764.0776l18.1447,18.1443v56.7837h36.8043V782.2219l18.1447-18.1443Z"/><rect class="cls-5" x="495.2574" y="762.6432" width="925.3184" height="2.8664"/></svg>