<svg id="Main_logo" data-name="Main logo" xmlns="http://www.w3.org/2000/svg" width="1500" height="1500" viewBox="0 0 1500 1500"><defs><style>.cls-1{fill:#f500f8;}.cls-2{fill:#0fd5ff;}.cls-3{fill:#939393;}.cls-4{fill:#ccc;}.cls-5{fill:#fff;}</style></defs><title>Standalone Icon</title><polygon class="cls-1" points="1159.141 742.327 1233.562 699.105 980.394 525.967 970.905 654.069 1159.141 742.327"/><polygon class="cls-1" points="540.48 409.315 478.176 373.132 445.844 970.371 696.118 1111.521 863.362 1022.619 622.578 863.619 540.48 409.315"/><polygon class="cls-1" points="1233.562 1022.619 763.492 1294.023 293.422 1022.619 478.176 915.94 712.461 1052.002 774.586 1016.143 540.48 879.961 763.492 751.215 1233.562 1022.619"/><polygon class="cls-1" points="293.422 479.811 478.176 373.132 478.176 915.94 293.422 1022.619 293.422 479.811"/><polygon class="cls-1" points="763.492 208.407 763.492 751.215 540.48 879.961 540.48 337.153 763.492 208.407"/><polygon class="cls-1" points="998.557 562.203 998.557 634.522 1233.562 771.063 1233.562 1022.619 763.492 751.215 763.492 208.407 1233.562 479.811 1233.562 699.105 998.557 562.203"/><polygon class="cls-2" points="1117.165 742.327 1191.586 699.105 938.418 525.967 928.929 654.069 1117.165 742.327"/><polygon class="cls-2" points="498.504 409.315 436.2 373.132 403.868 970.371 654.142 1111.521 821.387 1022.619 580.602 863.619 498.504 409.315"/><polygon class="cls-2" points="1191.586 1022.619 721.516 1294.023 251.447 1022.619 436.2 915.94 670.485 1052.002 732.61 1016.143 498.504 879.961 721.516 751.215 1191.586 1022.619"/><polygon class="cls-2" points="251.447 479.811 436.2 373.132 436.2 915.94 251.447 1022.619 251.447 479.811"/><polygon class="cls-2" points="721.516 208.407 721.516 751.215 498.504 879.961 498.504 337.153 721.516 208.407"/><polygon class="cls-2" points="956.581 562.203 956.581 634.522 1191.586 771.063 1191.586 1022.619 721.516 751.215 721.516 208.407 1191.586 479.811 1191.586 699.105 956.581 562.203"/><polygon class="cls-3" points="1141.151 742.327 1215.572 699.105 962.404 525.967 952.915 654.069 1141.151 742.327"/><polygon class="cls-4" points="522.49 409.315 460.187 373.132 427.854 970.371 678.128 1111.521 845.373 1022.619 604.588 863.619 522.49 409.315"/><polygon class="cls-3" points="1215.572 1022.619 745.502 1294.023 275.433 1022.619 460.187 915.94 694.472 1052.002 756.596 1016.143 522.49 879.961 745.502 751.215 1215.572 1022.619"/><polygon class="cls-5" points="275.433 479.811 460.187 373.132 460.187 915.94 275.433 1022.619 275.433 479.811"/><polygon class="cls-5" points="745.502 208.407 745.502 751.215 522.49 879.961 522.49 337.153 745.502 208.407"/><polygon class="cls-4" points="980.567 562.203 980.567 634.522 1215.572 771.063 1215.572 1022.619 745.502 751.215 745.502 208.407 1215.572 479.811 1215.572 699.105 980.567 562.203"/></svg>